<svg 
 xmlns="http://www.w3.org/2000/svg"
 xmlns:xlink="http://www.w3.org/1999/xlink"
 width="4.361in" height="1.556in">
<path fill-rule="evenodd"  fill="rgb(255, 255, 255)"
 d="M275.061,58.860 L275.468,58.860 L275.468,59.616 C275.197,59.888 275.061,60.121 275.061,60.314 L274.712,60.314 L274.887,59.965 L274.712,59.616 C274.945,59.267 275.061,59.016 275.061,58.860 ZM307.907,76.481 L307.675,76.481 L307.675,77.004 L308.198,76.713 L308.780,76.713 C308.585,77.993 308.024,78.633 307.093,78.633 L307.093,79.156 L307.907,79.156 L307.907,79.447 C306.279,80.842 305.465,81.657 305.465,81.889 L305.756,81.889 C306.105,81.735 306.375,81.657 306.570,81.657 L306.861,82.180 L306.279,82.471 L305.756,82.180 C305.756,83.033 303.488,84.681 298.952,87.123 C296.703,88.015 294.144,88.460 291.275,88.460 C288.522,87.841 286.061,86.658 283.890,84.913 C282.455,83.673 280.828,79.757 279.005,73.166 L279.005,71.247 C279.087,70.559 279.195,69.874 279.320,69.192 C278.940,69.792 278.539,70.385 278.085,70.956 C278.202,71.151 278.260,71.305 278.260,71.421 C277.872,71.421 277.348,72.275 276.690,73.980 C275.797,74.950 274.983,76.190 274.247,77.702 L274.712,77.877 L275.061,77.877 C275.061,77.334 275.468,76.850 276.283,76.423 L276.283,76.074 L276.864,76.074 L276.864,76.248 C276.360,77.295 275.759,77.955 275.061,78.225 C274.712,79.195 273.917,80.319 272.677,81.598 C271.747,82.645 271.223,83.498 271.107,84.157 C270.642,84.157 269.905,84.913 268.897,86.425 L269.130,86.774 C269.130,86.968 268.993,87.065 268.723,87.065 C268.490,86.948 268.218,86.890 267.908,86.890 L267.908,87.065 L268.083,87.414 C268.083,88.190 266.958,88.829 264.710,89.333 C264.594,89.139 264.535,88.926 264.535,88.693 L263.489,88.868 C261.123,87.744 259.941,86.774 259.941,85.960 C260.096,85.727 260.387,84.759 260.814,83.052 L260.581,82.703 C261.046,80.688 261.491,79.679 261.919,79.679 L261.919,79.156 C261.919,78.807 262.326,78.109 263.140,77.062 L263.140,76.888 L262.733,76.888 L262.733,76.772 C263.120,76.772 263.605,75.357 264.187,72.526 L265.757,68.514 C265.601,68.320 265.524,68.165 265.524,68.049 C266.338,67.002 266.745,65.975 266.745,64.966 C267.404,63.920 268.063,62.098 268.723,59.500 C269.226,58.997 269.769,57.116 270.351,53.859 C270.970,53.859 271.417,52.716 271.688,50.428 L271.456,50.137 C271.766,49.788 271.921,49.518 271.921,49.323 L271.339,48.974 C271.339,49.130 270.738,49.459 269.537,49.963 C268.916,50.428 268.509,51.010 268.315,51.707 C268.083,52.289 267.676,52.890 267.094,53.510 L263.372,58.337 L262.384,59.500 C262.384,60.082 261.782,60.509 260.581,60.779 L260.814,61.419 C260.077,63.319 259.592,64.289 259.360,64.327 L259.592,64.617 C259.398,65.626 258.875,66.808 258.022,68.165 C257.130,71.073 256.258,72.526 255.405,72.526 L255.405,72.701 C255.792,72.701 255.987,72.817 255.987,73.050 C255.444,73.438 255.173,74.136 255.173,75.143 L255.173,76.423 C255.173,76.578 254.998,76.733 254.649,76.888 C254.649,76.811 254.571,76.772 254.417,76.772 L254.417,78.516 C254.417,79.214 254.010,79.816 253.196,80.319 L253.196,81.249 L253.603,81.249 L253.603,81.773 C253.098,81.773 252.847,81.928 252.847,82.238 C252.924,82.433 252.963,82.645 252.963,82.878 C252.575,82.994 252.207,84.080 251.858,86.134 C251.393,86.134 251.160,86.716 251.160,87.879 L251.160,88.519 C251.160,88.674 250.986,88.829 250.637,88.984 L250.404,88.984 C250.172,88.984 250.055,88.888 250.055,88.693 L249.590,88.868 L249.008,88.868 C248.698,88.441 248.311,88.228 247.845,88.228 C247.651,88.228 247.186,87.783 246.450,86.890 L246.450,86.425 C246.992,85.495 248.311,80.707 250.404,72.061 C250.598,72.061 250.928,70.665 251.393,67.874 C252.129,65.122 252.730,63.338 253.196,62.524 C253.040,62.330 252.963,62.175 252.963,62.059 L254.417,58.511 L254.184,58.511 C253.331,58.977 251.684,61.128 249.241,64.966 C249.008,64.966 248.465,65.820 247.613,67.525 C247.186,67.564 246.139,69.232 244.472,72.526 C243.270,73.070 242.068,74.911 240.867,78.051 C240.402,78.129 239.607,79.583 238.483,82.413 L238.076,82.413 L238.076,82.238 C238.076,81.967 238.404,80.998 239.064,79.330 C238.676,79.641 237.901,81.037 236.738,83.517 C236.854,83.712 236.912,83.866 236.912,83.983 C236.447,83.983 236.040,85.437 235.691,88.344 C235.264,89.004 234.935,89.333 234.703,89.333 L233.888,89.333 C232.920,88.053 231.815,87.414 230.574,87.414 C230.303,86.561 229.760,86.134 228.945,86.134 L228.945,85.437 C228.945,85.359 229.004,85.320 229.120,85.320 C228.733,84.817 228.538,84.487 228.538,84.332 C229.353,83.479 230.399,80.513 231.679,75.434 C231.911,75.434 232.183,74.911 232.493,73.864 C232.881,73.477 233.288,72.333 233.714,70.433 C233.947,70.356 234.354,69.658 234.935,68.339 L234.703,67.409 C235.594,65.548 236.117,64.617 236.273,64.617 L236.040,64.327 C236.350,63.978 236.505,63.649 236.505,63.338 L236.273,62.524 C236.738,62.330 237.067,62.021 237.261,61.594 C237.145,61.400 237.087,61.186 237.087,60.954 C237.087,60.683 237.339,60.509 237.843,60.430 L237.843,60.314 L237.494,59.791 C238.036,59.791 238.444,58.880 238.715,57.058 C238.986,56.399 239.258,56.069 239.529,56.069 L239.297,55.429 L239.529,54.615 C239.374,54.615 239.297,54.577 239.297,54.499 C239.490,54.499 239.820,53.626 240.285,51.882 C240.634,51.649 240.905,51.010 241.100,49.963 C241.836,49.032 242.417,47.637 242.844,45.776 C242.999,45.776 243.387,44.962 244.007,43.333 C243.929,43.140 243.891,42.984 243.891,42.868 C244.317,42.442 245.034,40.775 246.043,37.867 C246.895,36.587 247.418,35.948 247.613,35.948 L248.020,35.948 L249.416,36.704 C249.416,36.820 249.744,37.692 250.404,39.321 C249.357,42.228 248.232,45.078 247.031,47.869 L246.217,50.137 L246.450,50.951 C246.101,50.951 245.771,51.378 245.461,52.231 L245.228,52.231 L245.228,52.696 C246.159,51.727 246.682,51.242 246.799,51.242 C246.799,51.358 246.876,51.417 247.031,51.417 C247.031,51.766 246.585,52.522 245.694,53.685 L245.694,53.859 L246.043,53.859 L248.252,50.602 L247.438,50.602 C247.632,50.176 247.825,49.963 248.020,49.963 L248.252,49.963 C248.252,50.390 248.369,50.602 248.601,50.602 C250.849,47.850 254.029,44.845 258.139,41.589 C258.953,41.046 259.553,40.775 259.941,40.775 L260.348,41.589 L260.814,41.414 C261.666,41.414 263.043,43.140 264.943,46.590 L265.524,46.590 C265.524,46.357 266.008,45.815 266.978,44.962 C267.947,44.147 268.528,43.333 268.723,42.519 C269.110,42.481 269.691,42.054 270.467,41.240 C271.863,40.581 272.754,40.251 273.142,40.251 C274.692,40.949 275.468,41.609 275.468,42.228 C275.701,43.818 276.224,45.427 277.039,47.055 C277.039,47.715 277.116,48.529 277.271,49.498 C277.116,51.088 276.709,52.367 276.050,53.336 C275.546,53.879 275.158,54.150 274.887,54.150 L275.061,54.499 C274.596,58.686 273.801,60.779 272.677,60.779 C272.677,60.935 272.541,61.148 272.270,61.419 L272.270,61.594 L272.677,61.419 L273.142,61.419 L273.142,62.233 C272.754,62.582 272.463,63.377 272.270,64.617 C271.688,65.975 271.049,67.157 270.351,68.165 L270.700,68.339 L269.653,69.968 L269.886,70.782 C269.381,70.782 268.664,73.361 267.734,78.516 C267.230,78.981 266.978,79.467 266.978,79.970 L266.978,80.610 L267.327,80.610 C267.637,80.610 268.102,79.912 268.723,78.516 C268.877,78.516 269.188,78.187 269.653,77.528 L270.118,77.702 C270.351,77.586 270.544,77.528 270.700,77.528 L270.700,77.411 L270.467,77.411 C270.235,77.489 270.040,77.528 269.886,77.528 L269.886,77.237 C271.475,76.268 272.270,75.299 272.270,74.329 L272.677,74.329 L272.677,74.794 C273.336,74.252 273.801,73.980 274.073,73.980 L274.073,73.689 L273.491,73.689 L273.491,73.341 C274.227,73.341 274.751,72.759 275.061,71.596 C275.527,71.596 276.069,70.898 276.690,69.502 C276.690,69.076 277.329,68.688 278.609,68.339 C278.609,68.242 279.037,67.688 279.884,66.689 C281.006,62.452 282.977,58.330 285.809,54.324 C288.561,52.774 290.655,50.777 292.090,48.334 C295.733,45.582 297.556,44.031 297.556,43.682 C297.556,43.217 299.378,42.403 303.023,41.240 L303.023,40.949 C302.674,40.949 302.499,40.775 302.499,40.426 L302.499,39.611 L302.732,39.611 C303.003,39.611 303.837,39.786 305.232,40.135 C305.542,39.980 305.891,39.902 306.279,39.902 L309.303,43.159 C310.039,44.787 310.679,47.966 311.222,52.696 C310.990,54.324 308.799,57.794 304.651,63.106 C303.875,63.106 302.421,64.017 300.289,65.839 C299.397,66.343 298.487,67.060 297.556,67.990 L297.556,68.281 L298.079,68.281 C298.079,68.592 296.994,69.134 294.823,69.909 C291.760,72.314 289.395,73.593 287.728,73.748 C287.379,73.554 287.107,73.457 286.914,73.457 C286.603,73.651 286.235,73.748 285.809,73.748 L285.809,73.457 L286.100,72.933 L285.576,72.933 C284.839,73.205 284.472,73.826 284.472,74.794 C284.937,76.617 286.293,77.528 288.542,77.528 L291.275,77.528 C293.136,77.528 296.412,75.997 301.103,72.933 C301.452,73.089 301.723,73.166 301.918,73.166 C301.995,72.585 302.460,72.139 303.313,71.829 L309.012,67.700 C309.555,67.700 310.369,68.069 311.455,68.805 C311.260,70.046 310.641,71.053 309.594,71.829 C309.943,71.829 310.117,71.907 310.117,72.061 C312.094,70.976 313.374,70.433 313.955,70.433 L313.955,71.014 C312.211,72.798 310.194,74.620 307.907,76.481 ZM241.100,65.955 C240.905,65.955 240.692,66.110 240.460,66.420 L241.100,66.420 L241.100,65.955 ZM251.044,60.779 L251.160,60.779 C251.160,60.586 251.393,60.314 251.858,59.965 L251.858,59.791 C251.547,59.830 251.276,60.102 251.044,60.605 L251.044,60.779 ZM248.369,56.069 C248.369,55.759 248.718,55.604 249.416,55.604 L249.416,55.429 C248.718,55.429 248.369,55.487 248.369,55.604 C248.020,55.836 247.845,55.992 247.845,56.069 L248.369,56.069 ZM245.228,59.500 L245.228,59.616 L245.461,59.616 C246.352,59.384 246.799,59.171 246.799,58.977 L246.217,58.977 C245.790,59.326 245.461,59.500 245.228,59.500 ZM245.810,56.418 C246.469,55.992 247.011,55.778 247.438,55.778 L247.031,55.313 C247.302,55.313 247.438,55.197 247.438,54.964 L247.438,54.790 C246.352,55.100 245.810,55.643 245.810,56.418 ZM247.438,53.859 L247.613,53.859 L248.601,53.685 L248.601,53.510 C248.369,53.239 248.252,53.026 248.252,52.870 C247.709,52.987 247.438,53.317 247.438,53.859 ZM249.590,51.707 C248.543,51.863 248.020,52.095 248.020,52.405 L248.369,52.522 L248.834,52.522 C249.144,52.328 249.395,52.231 249.590,52.231 L249.590,51.707 ZM251.044,49.963 L251.044,50.137 C251.237,50.137 251.431,49.963 251.625,49.614 L251.625,49.498 C251.431,49.498 251.237,49.653 251.044,49.963 ZM251.625,49.149 L252.381,49.149 L252.614,48.509 L252.207,48.509 C252.207,48.820 252.012,48.974 251.625,48.974 L251.625,49.149 ZM253.603,46.415 C253.370,46.415 252.788,46.959 251.858,48.044 L252.381,48.334 C252.885,48.025 253.350,47.869 253.777,47.869 L253.777,46.706 L254.010,46.415 L253.603,46.415 ZM256.568,44.322 L256.336,44.322 C256.336,44.438 256.297,44.594 256.219,44.787 L256.219,44.962 L256.336,44.962 C256.336,44.845 256.413,44.691 256.568,44.496 L256.568,44.322 ZM257.208,68.165 L257.208,68.049 L256.801,68.049 C256.801,68.359 256.723,68.514 256.568,68.514 C256.723,68.708 256.801,68.863 256.801,68.979 C257.072,68.979 257.208,68.883 257.208,68.688 C257.208,68.572 257.130,68.514 256.975,68.514 L257.208,68.165 ZM259.767,53.336 C259.495,53.375 259.360,53.491 259.360,53.685 L259.360,53.859 C259.631,53.859 259.767,53.743 259.767,53.510 L259.767,53.336 ZM260.174,60.605 C259.902,60.644 259.767,60.760 259.767,60.954 L259.767,61.070 L260.174,61.070 C260.174,60.954 260.232,60.799 260.348,60.605 L260.174,60.605 ZM272.270,80.435 L271.921,80.435 L271.456,81.598 C271.766,81.482 271.979,81.424 272.095,81.424 L271.921,81.075 L271.921,80.784 L272.270,80.784 L272.270,80.435 ZM273.898,78.865 L273.666,78.865 C273.510,78.865 273.259,79.079 272.910,79.505 L272.910,79.796 C273.336,79.486 273.666,79.330 273.898,79.330 L273.898,78.865 ZM276.515,71.770 C276.050,71.770 275.565,72.197 275.061,73.050 L275.468,73.224 C275.468,72.682 275.817,72.410 276.515,72.410 L276.515,71.770 ZM287.437,68.514 C288.406,68.320 289.783,67.138 291.566,64.966 C292.458,64.966 295.463,61.981 300.580,56.011 C301.162,55.391 302.344,53.743 304.127,51.068 C304.127,50.719 303.933,50.544 303.546,50.544 C303.430,50.855 301.432,52.114 297.556,54.324 C291.469,60.295 288.019,64.676 287.205,67.467 C287.359,67.778 287.437,68.127 287.437,68.514 ZM301.394,82.703 C300.464,82.936 299.999,83.227 299.999,83.576 L299.999,83.808 L300.813,83.808 C301.083,83.808 301.355,83.537 301.627,82.994 C301.471,82.994 301.394,82.898 301.394,82.703 ZM303.023,81.889 L302.732,81.889 C302.383,81.967 302.208,82.161 302.208,82.471 L302.208,82.994 C302.557,82.801 302.828,82.703 303.023,82.703 L303.023,81.889 ZM303.546,81.657 L303.546,81.889 C304.786,80.998 305.619,80.552 306.047,80.552 L306.047,80.261 L304.942,80.261 C304.709,80.261 304.244,80.726 303.546,81.657 ZM305.756,78.109 L305.756,78.342 L306.279,78.342 C307.170,77.877 307.636,77.528 307.675,77.295 L307.093,77.004 C306.279,77.353 305.833,77.722 305.756,78.109 ZM309.827,72.352 C308.547,72.546 307.907,72.817 307.907,73.166 L307.907,73.980 C308.411,73.282 309.051,72.933 309.827,72.933 L309.827,72.352 ZM228.518,56.476 C228.518,56.050 228.381,55.836 228.111,55.836 L227.936,55.836 L227.936,57.523 L226.889,58.744 L226.889,58.977 L227.064,58.977 L227.064,58.570 L227.296,58.570 C227.567,58.609 227.703,58.744 227.703,58.977 C227.432,59.093 227.218,59.151 227.064,59.151 L227.064,60.838 L226.657,60.838 L226.657,60.198 L226.482,60.198 C226.172,60.237 226.017,60.372 226.017,60.605 L226.017,60.838 C226.017,61.109 226.308,61.245 226.889,61.245 L226.657,62.291 L226.017,61.884 L225.610,61.884 C225.338,62.854 225.067,63.338 224.796,63.338 L225.028,63.745 L225.028,63.978 C224.020,65.257 223.322,66.557 222.935,67.874 C221.965,69.425 221.481,70.414 221.481,70.840 C221.054,70.840 220.763,71.383 220.609,72.468 L220.434,72.468 L220.027,72.294 L220.027,72.468 C220.144,72.740 220.202,72.953 220.202,73.108 C219.697,73.263 218.670,74.640 217.120,77.237 C217.120,77.625 216.634,78.187 215.666,78.923 L213.572,81.424 L213.572,81.598 C214.191,81.702 214.520,81.886 214.589,82.142 C214.659,82.096 214.703,82.051 214.793,82.005 L215.433,82.005 C215.433,82.183 215.077,82.478 214.399,82.881 L213.805,83.517 C213.533,83.363 213.320,83.285 213.165,83.285 L213.165,82.878 L213.805,82.878 L213.805,82.471 L213.572,82.064 C211.479,83.227 210.432,83.905 210.432,84.099 L210.839,84.332 L211.304,84.332 C211.769,84.332 212.254,84.061 212.758,83.517 L212.932,83.517 L212.932,84.099 C212.584,84.564 212.040,84.913 211.304,85.146 C211.304,85.736 210.670,86.224 209.476,86.620 C209.410,86.571 209.325,86.541 209.211,86.541 L209.081,86.745 C208.982,86.773 208.909,86.805 208.804,86.832 L208.804,87.007 L208.915,87.007 L208.804,87.181 L208.978,87.181 C209.114,87.104 209.235,87.046 209.342,87.007 L209.618,87.007 L209.618,87.239 C209.598,87.376 209.410,87.533 209.056,87.709 C208.894,87.565 208.608,87.463 208.164,87.414 L208.164,87.588 C208.194,87.801 208.286,87.927 208.436,87.973 C208.174,88.073 207.873,88.177 207.524,88.286 C207.524,88.451 207.322,88.560 206.963,88.625 C206.732,88.508 206.449,88.380 206.070,88.228 L205.896,88.228 L206.224,88.687 C206.169,88.688 206.129,88.693 206.070,88.693 C204.403,88.693 203.570,88.344 203.570,87.646 C202.988,87.841 202.445,88.112 201.941,88.460 C201.282,87.918 200.720,87.646 200.255,87.646 L200.488,87.239 C200.100,86.541 199.809,86.192 199.615,86.192 L199.441,86.192 L200.255,87.239 L200.255,87.414 L200.081,87.414 C199.615,87.414 199.266,86.736 199.034,85.378 C197.754,85.378 196.222,82.529 194.440,76.830 L194.440,76.190 C194.440,76.074 194.518,76.016 194.672,76.016 C194.518,74.349 194.304,73.380 194.033,73.108 C194.033,72.526 194.304,71.693 194.847,70.607 C194.847,69.199 194.902,68.106 195.006,67.293 L194.972,67.293 C194.972,68.534 194.351,69.153 193.111,69.153 L192.879,68.630 C193.215,68.423 194.040,67.515 195.330,65.939 C195.395,65.809 195.469,65.725 195.547,65.672 C195.589,65.620 195.628,65.574 195.670,65.521 L195.486,65.199 C196.029,64.540 196.301,64.056 196.301,63.745 L196.301,63.293 C195.237,64.093 194.681,64.733 194.681,65.199 L194.158,65.199 L194.158,64.676 C194.158,64.405 194.778,63.784 196.019,62.815 L196.542,62.815 L196.542,63.042 C196.648,62.978 196.708,62.868 196.708,62.698 C196.591,62.428 196.533,62.214 196.533,62.059 C196.998,62.059 197.405,60.896 197.754,58.570 C198.452,58.182 198.801,57.892 198.801,57.697 L198.801,56.650 C199.537,56.650 200.022,55.973 200.255,54.615 C200.758,54.615 201.185,53.995 201.534,52.754 C201.767,52.754 202.309,52.056 203.163,50.661 C203.744,50.544 204.035,50.409 204.035,50.254 L203.802,49.846 C204.616,48.374 205.508,47.404 206.477,46.939 C206.477,46.590 206.768,46.086 207.350,45.427 C207.388,45.156 207.524,45.020 207.757,45.020 C207.757,45.175 207.815,45.252 207.931,45.252 C207.931,44.012 208.706,43.391 210.257,43.391 L210.664,43.391 L210.257,42.752 L210.257,42.519 C210.644,41.860 212.156,41.182 214.793,40.484 C215.064,40.329 215.355,40.251 215.666,40.251 L217.701,40.484 C218.283,40.213 218.709,40.077 218.980,40.077 C219.911,40.193 220.667,40.251 221.248,40.251 C221.287,39.980 221.423,39.844 221.656,39.844 C222.973,40.504 223.749,40.988 223.982,41.298 C224.369,42.267 224.563,42.830 224.563,42.984 L225.610,42.984 C227.974,45.582 229.157,49.866 229.157,55.836 C229.002,56.108 228.925,56.322 228.925,56.476 L228.518,56.476 ZM207.117,87.821 L207.350,87.821 C207.620,87.666 207.815,87.588 207.931,87.588 L207.931,87.414 L207.757,87.414 C207.485,87.530 207.272,87.588 207.117,87.588 L207.117,87.821 ZM198.394,77.644 L197.987,77.818 L197.580,77.644 L197.580,78.865 L197.754,78.865 C197.754,78.439 197.967,78.225 198.394,78.225 L198.394,77.644 ZM200.895,63.280 L200.662,63.280 L200.662,63.920 L201.127,63.920 C200.972,63.649 200.895,63.435 200.895,63.280 ZM201.302,66.188 L201.302,66.827 L201.709,66.827 L201.709,66.188 L201.302,66.188 ZM201.534,65.141 C201.651,65.413 201.709,65.626 201.709,65.781 L201.941,65.781 C202.484,65.548 202.756,65.064 202.756,64.327 L202.348,64.327 C202.348,64.676 202.077,64.947 201.534,65.141 ZM203.395,63.513 L203.163,63.513 C202.891,63.552 202.756,63.687 202.756,63.920 L202.756,64.094 C203.026,63.978 203.240,63.920 203.395,63.920 L203.395,63.513 ZM218.166,45.427 C217.856,45.466 217.701,45.601 217.701,45.834 C218.204,46.106 218.902,46.299 219.795,46.415 L220.027,46.008 C219.058,45.854 218.437,45.659 218.166,45.427 ZM218.166,47.055 L218.166,47.462 L218.980,47.462 L218.980,47.055 L218.166,47.055 ZM219.620,47.869 L219.620,48.509 C220.551,48.781 221.365,48.916 222.063,48.916 C221.481,48.218 220.667,47.869 219.620,47.869 ZM224.156,52.463 C224.311,52.231 224.389,51.960 224.389,51.649 L222.528,49.556 L222.702,49.149 L222.702,48.916 L222.528,48.916 C222.528,49.343 222.372,49.556 222.063,49.556 C221.946,49.556 221.403,49.420 220.434,49.149 L219.388,49.149 L219.388,48.509 L218.573,48.509 L218.573,48.742 L218.748,49.149 L217.701,49.556 C216.964,49.439 216.422,49.381 216.073,49.381 C214.677,49.692 213.979,50.099 213.979,50.602 L214.386,50.602 L215.259,50.195 L215.433,50.602 L215.433,50.835 L214.212,51.649 L214.212,52.289 L213.340,51.649 C212.447,51.649 211.207,52.619 209.618,54.557 C209.307,55.255 208.900,55.604 208.396,55.604 L208.396,55.778 L208.978,56.650 C208.978,56.922 208.842,57.058 208.571,57.058 L208.396,57.058 L208.396,56.650 L208.164,56.650 C207.466,57.038 206.904,57.794 206.477,58.918 L206.710,59.965 L205.489,61.186 L205.663,61.594 L205.024,62.873 L205.489,63.513 C205.333,63.513 205.256,63.571 205.256,63.687 L204.849,63.513 C203.608,64.637 202.503,66.420 201.534,68.863 C201.379,68.863 201.302,68.941 201.302,69.095 C201.573,69.134 201.709,69.270 201.709,69.502 C201.709,70.200 201.573,70.549 201.302,70.549 C201.573,71.247 201.709,71.732 201.709,72.003 C200.700,72.003 199.673,74.291 198.627,78.865 L198.801,79.272 L198.801,79.505 C198.801,79.777 198.665,79.912 198.394,79.912 L197.987,79.679 L197.754,80.086 C198.025,80.165 198.161,80.319 198.161,80.552 C197.890,80.591 197.754,80.726 197.754,80.959 L198.161,81.133 L198.394,81.133 L198.394,80.552 L198.801,80.552 L198.801,80.726 C198.801,80.881 198.743,80.959 198.627,80.959 C198.627,83.596 200.002,84.913 202.756,84.913 L202.988,84.913 C205.236,84.293 207.233,83.247 208.978,81.773 C208.978,81.540 209.888,80.572 211.711,78.865 C211.711,78.400 212.118,77.916 212.932,77.411 C212.932,77.141 213.630,76.171 215.026,74.504 C216.305,72.798 217.197,71.480 217.701,70.549 C218.011,70.549 218.495,70.200 219.155,69.502 C219.039,69.232 218.980,69.018 218.980,68.863 C219.484,68.825 219.969,67.855 220.434,65.955 C220.977,65.955 221.384,65.141 221.656,63.513 C222.896,61.381 223.865,57.969 224.563,53.278 L224.156,52.463 ZM204.209,68.863 L203.802,68.863 L203.802,68.456 C203.841,68.185 203.977,68.049 204.209,68.049 C204.480,68.088 204.616,68.223 204.616,68.456 C204.616,68.727 204.480,68.863 204.209,68.863 ZM209.081,86.745 C209.222,86.704 209.349,86.662 209.476,86.620 C209.567,86.686 209.618,86.792 209.618,86.948 C209.540,86.948 209.448,86.968 209.342,87.007 L208.915,87.007 L209.081,86.745 ZM209.211,87.995 L208.571,87.995 C208.521,87.995 208.477,87.986 208.436,87.973 C208.680,87.881 208.888,87.792 209.056,87.709 C209.148,87.791 209.211,87.883 209.211,87.995 ZM207.524,89.042 C207.524,89.353 206.904,89.702 205.663,90.089 L204.849,89.682 L203.570,89.856 C203.337,89.856 203.201,89.721 203.163,89.449 C204.403,89.333 205.101,89.275 205.256,89.275 L206.303,89.449 L206.477,89.042 L206.224,88.687 C206.525,88.682 206.768,88.660 206.963,88.625 C207.322,88.805 207.524,88.948 207.524,89.042 ZM193.635,63.629 L193.402,63.629 L192.879,63.338 L192.064,64.385 C192.258,64.385 192.355,64.482 192.355,64.676 C191.579,64.676 191.056,65.103 190.785,65.955 L190.785,66.478 L191.018,66.478 L191.018,65.722 L191.541,65.722 C191.890,65.722 192.064,65.975 192.064,66.478 L193.402,65.722 L193.925,65.722 L193.925,66.246 C187.916,72.875 183.961,76.559 182.062,77.295 L182.062,77.528 L182.585,77.528 C184.368,76.675 186.133,75.201 187.877,73.108 L188.401,72.817 L188.633,72.817 C188.633,73.361 188.808,73.631 189.157,73.631 L189.157,74.155 C188.962,74.155 188.090,74.853 186.540,76.248 C186.191,76.055 185.938,75.957 185.784,75.957 L185.493,76.481 C186.191,76.597 186.540,76.869 186.540,77.295 C186.540,77.450 185.668,78.148 183.923,79.389 L183.400,79.389 C183.400,79.040 183.302,78.865 183.109,78.865 C182.023,79.330 180.724,80.300 179.212,81.773 L179.445,81.773 C180.104,81.579 180.976,81.056 182.062,80.203 L182.353,80.203 L182.353,80.435 C181.112,81.793 179.620,82.761 177.875,83.343 L177.875,83.052 L178.922,82.005 L178.398,82.005 C174.405,84.138 172.118,85.204 171.536,85.204 C170.838,86.057 170.062,86.483 169.210,86.483 L168.687,86.483 L168.163,86.251 L167.873,86.774 L167.873,87.007 L168.919,87.007 C171.788,86.038 174.328,84.991 176.537,83.866 L177.061,83.866 C175.161,85.495 172.098,86.988 167.873,88.344 C167.873,88.693 167.698,88.868 167.349,88.868 L165.488,88.868 C165.139,88.868 164.965,88.693 164.965,88.344 C165.158,88.344 165.256,88.248 165.256,88.053 L164.732,87.821 C164.577,87.821 164.053,87.899 163.162,88.053 C159.478,87.356 157.637,86.580 157.637,85.727 C153.916,80.261 151.977,76.404 151.822,74.155 C151.822,72.256 152.694,69.697 154.439,66.478 C154.439,64.850 155.311,63.454 157.056,62.291 L157.347,60.954 L156.823,61.245 C156.823,61.051 156.726,60.954 156.533,60.954 L158.161,57.814 L158.684,57.814 C158.839,57.814 158.917,57.911 158.917,58.104 C159.459,58.104 160.778,56.690 162.871,53.859 L162.581,53.336 C163.472,52.173 166.980,49.459 173.106,45.194 C173.959,44.962 175.277,44.167 177.061,42.810 C178.340,42.306 179.134,42.054 179.445,42.054 L179.445,41.530 C177.739,41.879 176.770,42.054 176.537,42.054 L175.781,42.054 C175.781,41.472 177.797,40.853 181.829,40.193 C184.931,40.193 186.772,43.528 187.354,50.195 L187.354,51.766 C186.268,54.868 183.458,58.648 178.922,63.106 C178.883,63.222 178.185,63.745 176.828,64.676 L176.537,64.676 C176.382,64.676 176.305,64.579 176.305,64.385 L172.874,66.769 L172.583,66.769 C170.838,66.769 169.966,65.975 169.966,64.385 C169.423,64.385 168.454,63.067 167.058,60.430 L166.826,60.430 C161.359,66.634 158.471,72.430 158.161,77.818 C158.161,78.516 158.936,79.040 160.487,79.389 L162.348,79.389 C164.674,79.389 169.850,76.927 177.875,72.003 C177.875,71.461 178.495,70.937 179.736,70.433 L180.492,70.956 L180.783,70.956 C181.132,70.956 181.306,70.782 181.306,70.433 L181.306,70.200 L181.015,70.200 C180.666,70.356 180.414,70.433 180.259,70.433 C180.492,69.774 181.790,69.076 184.156,68.339 C184.156,67.836 184.349,67.583 184.737,67.583 L186.016,67.583 L186.016,67.002 L185.493,67.002 L185.493,66.246 C187.392,66.246 188.808,65.548 189.738,64.152 C190.707,63.338 191.754,62.640 192.879,62.059 C192.879,62.757 193.305,63.106 194.158,63.106 C194.158,63.454 193.983,63.629 193.635,63.629 ZM184.737,77.818 L185.493,77.818 L186.016,77.004 L185.784,77.004 C185.357,77.353 185.008,77.528 184.737,77.528 L184.737,77.818 ZM179.445,43.333 L180.783,43.101 C180.783,43.256 180.860,43.333 181.015,43.333 L181.306,42.810 L179.736,42.810 C179.387,42.888 179.212,43.062 179.212,43.333 L179.445,43.333 ZM167.582,60.198 C173.203,56.592 176.014,54.054 176.014,52.580 L175.781,52.580 C173.067,54.131 170.606,56.322 168.396,59.151 C168.124,59.151 167.775,59.500 167.349,60.198 L167.582,60.198 ZM175.781,78.865 C175.510,78.865 175.238,79.137 174.967,79.679 L175.781,79.679 C176.130,79.679 176.305,79.505 176.305,79.156 L175.781,78.865 ZM183.923,73.341 L182.876,73.341 C182.914,73.689 183.089,73.864 183.400,73.864 L183.923,73.864 L183.923,73.341 ZM190.262,66.246 C189.990,66.246 189.718,66.498 189.448,67.002 C189.641,67.002 189.738,67.099 189.738,67.293 C189.195,67.758 188.129,68.378 186.540,69.153 C186.540,69.813 186.365,70.337 186.016,70.724 L186.307,70.724 C187.974,70.724 189.544,69.755 191.018,67.816 C190.669,67.234 190.494,66.711 190.494,66.246 L190.262,66.246 ZM158.616,28.388 C158.616,28.659 158.499,28.795 158.267,28.795 L158.267,28.213 L158.616,28.213 L158.616,28.388 ZM158.267,22.631 L158.267,21.875 L158.616,21.875 L158.616,22.282 C158.616,22.514 158.499,22.631 158.267,22.631 ZM136.401,70.433 L136.750,70.433 L136.750,71.014 L136.168,72.352 L136.401,72.759 L136.401,72.933 C136.401,73.128 136.207,73.321 135.820,73.515 L135.994,73.922 C135.994,74.155 135.858,74.271 135.587,74.271 L135.412,73.922 C135.412,73.573 135.606,73.108 135.994,72.526 L135.994,72.352 L135.820,71.421 C136.129,71.151 136.381,71.014 136.576,71.014 L136.576,70.840 L136.401,70.433 ZM136.983,67.758 C137.060,66.983 137.234,66.595 137.506,66.595 L137.739,66.595 C137.971,66.634 138.087,66.769 138.087,67.002 C137.583,67.313 137.332,67.564 137.332,67.758 L136.983,67.758 ZM139.658,59.326 L140.007,59.093 L140.239,59.093 L140.239,59.674 L140.007,59.674 C139.774,59.674 139.658,59.558 139.658,59.326 ZM134.831,81.773 L134.831,82.354 L134.482,82.354 L134.482,81.773 L134.831,81.773 ZM137.506,81.773 L137.913,81.773 L138.087,82.529 L137.739,82.703 L137.506,82.354 L137.506,81.773 ZM140.007,82.703 L140.414,82.703 L140.414,83.692 L140.007,83.692 L140.007,82.703 ZM141.344,77.935 C141.499,77.664 141.577,77.469 141.577,77.353 L141.926,77.353 L141.926,77.528 C141.809,77.799 141.751,77.993 141.751,78.109 L141.344,78.109 L141.344,77.935 ZM143.496,71.189 L143.496,71.770 L143.089,71.770 L143.089,71.596 C143.127,71.325 143.263,71.189 143.496,71.189 ZM166.699,9.430 C165.885,10.555 165.051,12.279 164.198,14.605 C163.694,14.605 163.442,14.858 163.442,15.361 L163.850,15.536 C163.578,15.924 163.442,16.370 163.442,16.873 L163.035,16.873 L163.035,16.350 L162.861,16.350 C162.628,17.475 162.376,18.036 162.105,18.036 L161.930,18.036 L161.930,17.688 L161.523,17.688 L161.523,18.269 L161.930,18.269 L161.930,18.444 C161.930,18.560 161.852,18.618 161.698,18.618 C161.852,18.890 161.930,19.083 161.930,19.199 L162.686,18.269 L162.686,18.444 C162.182,20.227 161.601,21.119 160.942,21.119 C160.670,21.700 160.477,22.398 160.360,23.212 L160.011,23.212 L160.011,22.863 L159.779,22.863 L160.011,24.201 L160.011,24.782 C159.701,25.480 159.372,25.926 159.023,26.120 L158.848,26.469 C158.965,26.701 159.023,26.973 159.023,27.283 L158.616,27.457 L158.092,27.457 L157.685,27.283 C157.685,26.314 157.995,25.538 158.616,24.957 C158.770,25.189 158.848,25.384 158.848,25.538 C159.081,25.538 159.197,25.403 159.197,25.131 L159.197,24.782 L158.848,24.201 L160.767,18.269 L162.279,14.024 L161.930,13.849 C161.542,13.849 161.349,14.218 161.349,14.954 L160.942,14.954 L160.767,14.198 L160.535,14.198 C160.535,14.586 160.418,15.032 160.186,15.536 C160.689,15.536 160.942,15.672 160.942,15.943 L160.186,17.280 L160.360,17.688 L160.360,17.862 C159.740,18.948 159.430,19.723 159.430,20.188 L159.023,20.188 L159.023,19.607 C159.372,19.180 159.623,18.405 159.779,17.280 C160.050,17.280 160.244,16.835 160.360,15.943 L160.360,15.768 L160.186,15.768 C159.643,16.622 158.945,18.211 158.092,20.537 L157.860,20.537 L157.860,20.188 L157.685,20.188 C156.871,20.537 156.367,20.983 156.173,21.526 L156.348,21.526 C156.851,21.332 157.355,21.002 157.860,20.537 L157.860,21.293 L154.254,31.121 C154.371,31.121 154.429,31.179 154.429,31.295 L153.673,32.051 C152.393,31.044 151.675,30.539 151.521,30.539 C151.521,30.346 151.715,29.571 152.103,28.213 L151.754,28.213 L151.347,28.388 L151.521,28.795 C151.521,29.493 151.017,30.520 150.009,31.877 L149.427,33.040 C149.544,33.273 149.602,33.467 149.602,33.622 C149.524,33.622 149.330,33.796 149.020,34.145 L149.253,34.552 C148.749,35.212 148.361,35.987 148.090,36.878 C147.741,36.995 147.295,37.945 146.752,39.728 C146.364,39.728 146.035,40.697 145.764,42.635 L145.008,42.810 C145.279,43.237 145.415,43.547 145.415,43.740 C145.415,44.051 144.969,44.826 144.077,46.066 L144.077,46.648 C144.115,46.920 144.232,47.055 144.426,47.055 L145.182,46.241 L145.182,47.055 C144.950,47.366 144.833,47.618 144.833,47.811 L144.659,47.811 L144.077,47.404 L143.845,47.404 C143.845,47.598 143.399,47.986 142.507,48.567 L142.740,48.974 L142.740,49.905 C142.507,50.176 142.313,50.816 142.158,51.824 C141.887,51.824 141.557,52.600 141.170,54.150 L140.588,54.150 L140.821,54.499 L140.821,54.731 C140.821,54.964 140.626,55.080 140.239,55.080 L140.239,56.069 C139.774,56.496 139.251,57.387 138.669,58.744 L139.076,59.326 C138.416,61.342 137.719,62.621 136.983,63.164 L136.983,63.338 L137.332,63.164 L137.506,63.164 C137.506,63.978 137.195,64.676 136.576,65.257 C136.846,65.684 136.983,66.013 136.983,66.246 C136.401,66.711 136.013,67.525 135.820,68.688 L135.412,68.688 L135.412,70.607 C135.102,71.034 134.909,71.616 134.831,72.352 L135.064,72.759 C134.909,73.263 134.637,73.515 134.249,73.515 L134.656,74.271 L134.482,75.027 L134.656,75.434 C134.540,75.667 134.482,75.919 134.482,76.190 L136.168,76.190 C136.439,76.113 136.827,74.775 137.332,72.177 L137.157,71.770 C137.273,71.383 137.390,71.189 137.506,71.189 L137.332,70.840 C137.332,70.685 137.390,70.607 137.506,70.607 L137.332,70.258 C137.719,69.909 137.971,69.386 138.087,68.688 L138.320,68.688 C138.436,68.688 138.495,68.766 138.495,68.921 C138.727,68.766 138.921,68.688 139.076,68.688 L139.076,68.165 C139.076,67.855 139.018,67.583 138.902,67.351 L140.414,64.676 L140.414,64.501 L140.239,64.094 C140.588,64.094 141.033,63.591 141.577,62.582 L141.751,62.582 L141.751,62.757 C141.131,63.920 140.239,66.362 139.076,70.084 C139.192,70.433 139.309,70.607 139.425,70.607 L140.007,70.607 L140.007,70.840 L140.239,70.840 L140.239,70.433 L139.832,69.677 L140.239,68.921 L140.588,69.095 L140.995,69.095 C141.382,67.661 141.887,66.324 142.507,65.083 C143.399,63.067 143.845,61.981 143.845,61.826 C143.728,61.555 143.670,61.361 143.670,61.245 C144.096,61.245 144.484,60.276 144.833,58.337 C145.453,58.337 145.764,57.775 145.764,56.650 C146.074,56.380 146.345,56.243 146.578,56.243 L146.578,55.836 L145.996,55.080 L145.996,54.906 C146.229,54.324 146.539,53.879 146.927,53.568 L146.752,52.580 C147.605,52.580 148.691,50.467 150.009,46.241 L150.416,46.241 L150.416,46.474 L150.591,48.160 C150.125,49.595 149.737,50.312 149.427,50.312 C149.427,50.157 149.369,50.079 149.253,50.079 C149.369,50.583 149.427,51.165 149.427,51.824 L149.602,51.824 L149.602,51.417 L150.009,51.417 L150.009,51.649 C149.582,52.774 149.195,53.472 148.846,53.743 L149.020,54.150 L149.020,54.499 L148.090,54.499 C146.423,59.151 145.589,61.594 145.589,61.826 C145.201,61.826 144.813,62.718 144.426,64.501 C144.310,64.501 144.057,64.947 143.670,65.839 L143.670,66.013 C143.708,66.285 143.845,66.420 144.077,66.420 L144.252,66.420 L144.252,66.013 L144.659,66.013 L144.659,66.246 C143.728,68.069 142.623,71.519 141.344,76.597 C140.801,79.777 140.433,81.366 140.239,81.366 L140.007,81.366 C139.812,81.366 139.444,80.979 138.902,80.203 C138.630,80.358 138.436,80.435 138.320,80.435 C138.204,80.165 138.068,79.447 137.913,78.284 L137.332,78.284 C137.332,78.711 137.390,79.040 137.506,79.272 L136.576,83.110 C136.692,83.343 136.750,83.537 136.750,83.692 L136.401,83.692 C136.401,83.421 136.129,83.285 135.587,83.285 L135.587,82.936 C135.897,82.936 136.227,82.491 136.576,81.598 L136.168,80.784 C136.401,80.784 136.672,80.533 136.983,80.028 C136.207,80.028 135.820,79.777 135.820,79.272 L135.238,79.272 L135.238,78.691 L135.994,78.691 L135.994,78.109 C135.994,77.877 135.858,77.760 135.587,77.760 L135.412,77.760 L135.412,78.109 L135.238,78.109 C134.967,78.109 134.831,77.916 134.831,77.528 L134.656,77.528 C134.463,77.528 134.211,77.857 133.900,78.516 C133.900,78.594 134.211,78.904 134.831,79.447 L134.482,79.679 C134.482,79.525 134.405,79.447 134.249,79.447 C134.249,79.718 134.133,79.854 133.900,79.854 L134.249,81.017 C133.862,81.017 133.668,81.773 133.668,83.285 C134.444,84.332 134.831,84.971 134.831,85.204 L135.238,85.204 L136.576,83.866 C136.846,84.526 136.983,84.971 136.983,85.204 L137.332,85.204 C138.068,84.700 138.591,84.448 138.902,84.448 L138.902,83.110 C139.056,83.110 139.231,83.305 139.425,83.692 L139.425,83.866 L139.251,84.273 L139.658,84.448 L139.832,84.448 C139.832,84.332 139.890,84.138 140.007,83.866 C140.277,83.983 140.472,84.041 140.588,84.041 C141.286,83.770 142.003,83.324 142.740,82.703 L142.740,83.110 L140.007,85.611 L140.007,86.774 C140.394,86.774 140.588,87.027 140.588,87.530 L139.832,88.286 C139.832,89.449 140.472,90.031 141.751,90.031 L140.588,90.787 L140.588,90.961 C141.014,90.961 141.344,91.349 141.577,92.124 C141.887,92.124 142.196,92.260 142.507,92.531 L142.740,92.531 L143.670,92.299 L143.845,92.706 L143.845,92.880 L143.670,92.880 L143.263,92.706 C143.263,92.977 143.011,93.113 142.507,93.113 C142.545,93.345 142.682,93.462 142.914,93.462 L143.845,93.287 L143.845,94.043 L142.914,94.043 C141.131,93.694 140.239,93.307 140.239,92.880 L139.832,93.113 C138.940,92.105 138.165,91.582 137.506,91.543 L131.749,85.960 C131.478,85.960 131.304,85.456 131.225,84.448 C131.342,84.215 131.400,84.022 131.400,83.866 C131.090,83.866 130.896,83.557 130.818,82.936 C131.051,82.781 131.245,82.703 131.400,82.703 L131.400,82.354 L130.993,81.773 C130.993,81.618 131.245,80.591 131.749,78.691 C131.516,78.691 131.400,78.555 131.400,78.284 L132.330,73.922 C132.330,73.768 132.408,73.573 132.563,73.341 L132.156,73.341 L132.156,72.759 L132.563,72.933 L132.912,70.607 C132.679,69.988 132.563,69.541 132.563,69.270 C132.757,69.153 133.067,69.095 133.493,69.095 L133.493,68.165 L133.144,67.583 L134.075,65.083 L134.482,65.083 L134.482,64.850 L134.075,64.327 L134.075,64.094 C134.735,62.040 135.238,60.896 135.587,60.663 C135.897,58.958 136.478,57.794 137.332,57.174 C137.602,56.941 137.797,56.050 137.913,54.499 L139.251,53.336 C138.863,53.336 138.669,53.219 138.669,52.987 L138.669,52.812 C138.940,52.502 139.076,52.231 139.076,51.998 L138.902,51.649 C139.018,51.030 139.328,50.448 139.832,49.905 L139.832,49.730 L139.658,48.742 C140.007,48.742 140.394,48.296 140.821,47.404 L140.821,47.055 C140.821,46.745 140.743,46.474 140.588,46.241 L143.496,40.309 C143.340,40.077 143.263,39.883 143.263,39.728 C143.573,39.728 144.038,38.972 144.659,37.460 C145.085,37.460 145.395,36.995 145.589,36.064 C145.706,36.064 145.764,36.006 145.764,35.890 C145.531,35.890 145.415,35.773 145.415,35.541 C145.918,35.154 146.306,34.959 146.578,34.959 L146.345,34.552 C146.345,34.087 146.732,33.137 147.508,31.703 C147.508,31.005 147.760,30.288 148.264,29.551 C148.264,29.086 148.593,28.330 149.253,27.283 L149.427,25.945 L149.253,25.538 C150.416,23.407 151.249,21.429 151.754,19.607 C151.831,19.607 152.082,19.219 152.510,18.444 L152.510,18.036 C152.122,18.036 151.928,17.843 151.928,17.455 L152.859,15.943 L152.859,14.954 L153.091,14.954 C153.324,15.110 153.517,15.187 153.673,15.187 L153.673,14.431 L153.266,14.605 L153.091,14.605 L153.091,14.431 C154.022,11.950 154.778,10.283 155.359,9.430 L155.359,10.186 C155.553,10.186 155.746,9.934 155.941,9.430 L155.592,9.255 C155.592,9.372 155.514,9.430 155.359,9.430 L155.359,9.023 C156.250,8.557 157.336,6.522 158.616,2.916 C159.468,1.095 160.050,0.125 160.360,0.009 C160.477,0.280 160.535,0.474 160.535,0.590 L160.942,0.416 L161.116,0.416 C162.047,0.688 162.570,1.134 162.686,1.753 C163.113,1.792 163.752,2.684 164.606,4.428 C165.032,4.428 165.420,5.398 165.769,7.336 L166.118,7.104 L166.525,7.104 L166.525,7.336 C166.253,7.724 166.118,8.092 166.118,8.441 L166.118,9.023 C166.505,9.023 166.699,9.159 166.699,9.430 ZM144.659,62.175 C144.659,61.788 144.775,61.594 145.008,61.594 C145.008,61.749 145.066,61.826 145.182,61.826 L145.182,61.012 L145.008,61.012 C145.008,61.206 144.755,61.535 144.252,62.001 L144.659,62.175 ZM143.845,67.351 L143.845,67.002 C143.573,67.002 143.379,67.313 143.263,67.932 C143.457,67.932 143.650,67.739 143.845,67.351 ZM143.263,65.257 L143.670,64.676 L143.670,64.327 L143.263,64.327 C143.263,64.521 143.147,64.773 142.914,65.083 L143.263,65.257 ZM140.821,77.179 L140.995,77.179 C140.995,76.636 141.053,76.113 141.170,75.609 C140.937,75.609 140.821,75.803 140.821,76.190 L140.821,77.179 ZM140.414,70.084 L140.414,69.270 L140.239,69.270 L140.239,70.084 L140.414,70.084 ZM137.913,74.678 L137.913,75.434 L138.669,75.434 L138.669,74.097 C139.172,74.097 139.425,73.651 139.425,72.759 L139.076,72.003 C139.192,71.732 139.251,71.538 139.251,71.421 L139.251,71.014 L139.076,71.014 C138.688,72.294 138.300,73.186 137.913,73.689 L138.320,74.271 C138.048,74.310 137.913,74.445 137.913,74.678 ZM135.064,77.528 C135.296,77.528 135.412,77.411 135.412,77.179 L135.064,76.946 L135.064,77.528 ZM132.563,78.865 C132.292,79.021 132.098,79.098 131.981,79.098 L131.981,79.272 L132.563,79.272 L132.563,78.865 ZM133.144,74.271 C133.183,74.543 133.300,74.678 133.493,74.678 L133.668,74.271 L133.668,73.922 L133.493,73.922 C133.261,73.961 133.144,74.077 133.144,74.271 ZM133.668,70.258 L133.668,70.433 C133.746,70.705 133.881,70.840 134.075,70.840 L134.075,70.258 L133.668,70.258 ZM134.075,67.583 L134.075,68.165 L134.482,68.165 C134.482,68.010 134.540,67.816 134.656,67.583 L134.075,67.583 ZM137.913,57.755 L137.739,57.755 C137.467,57.794 137.332,57.930 137.332,58.162 L137.332,58.744 L137.913,58.744 L137.913,57.755 ZM139.076,54.150 L138.495,54.150 C138.572,54.887 138.765,55.255 139.076,55.255 L139.076,54.150 ZM140.995,49.149 C140.995,48.878 140.859,48.742 140.588,48.742 L140.588,49.730 L140.995,49.730 L140.995,49.149 ZM152.859,26.469 L152.510,26.469 L152.510,27.050 L152.859,27.050 L152.859,26.469 ZM152.859,29.376 C152.859,29.106 152.742,28.969 152.510,28.969 C152.510,29.125 152.451,29.318 152.335,29.551 L152.684,29.783 L152.859,29.783 L152.859,29.376 ZM156.173,22.282 C155.902,21.972 155.766,21.720 155.766,21.526 L155.592,21.526 C155.320,22.418 155.185,22.921 155.185,23.038 C155.223,23.309 155.359,23.445 155.592,23.445 C155.592,23.212 155.785,22.883 156.173,22.456 L156.173,22.282 ZM153.266,30.307 L153.673,30.307 L153.673,29.958 C153.673,29.687 153.536,29.551 153.266,29.551 L153.091,29.551 C153.207,29.783 153.266,30.036 153.266,30.307 ZM153.091,29.202 L153.847,29.202 L153.847,28.969 C153.847,28.737 153.711,28.620 153.440,28.620 C153.207,28.659 153.091,28.776 153.091,28.969 L153.091,29.202 ZM153.673,25.538 L153.673,25.713 C154.060,25.713 154.254,25.849 154.254,26.120 C153.943,26.120 153.615,26.624 153.266,27.632 L153.673,27.864 L154.022,27.864 C154.022,27.477 154.157,27.283 154.429,27.283 C154.467,27.515 154.583,27.632 154.778,27.632 L155.010,27.283 C154.739,27.283 154.603,27.147 154.603,26.876 C154.641,26.605 154.778,26.469 155.010,26.469 C155.010,26.857 155.127,27.050 155.359,27.050 L155.359,26.120 L155.766,25.945 C155.495,25.287 155.359,24.821 155.359,24.550 C155.553,24.550 155.746,24.375 155.941,24.026 L155.359,23.619 C155.359,23.852 154.855,24.356 153.847,25.131 L153.673,25.538 ZM155.010,23.445 C155.010,23.174 154.874,23.038 154.603,23.038 L154.022,23.038 L154.022,23.212 C154.215,23.755 154.409,24.026 154.603,24.026 C154.874,24.026 155.010,23.891 155.010,23.619 L155.010,23.445 ZM156.697,19.199 L156.348,19.199 C156.270,19.975 155.883,20.363 155.185,20.363 L155.185,20.537 C155.339,20.537 155.534,20.595 155.766,20.711 L156.697,19.607 L156.697,19.199 ZM162.686,12.105 C162.454,12.105 162.201,12.551 161.930,13.442 L162.279,13.617 C162.473,13.617 162.667,13.442 162.861,13.093 L162.686,12.105 ZM126.057,76.481 L126.057,77.004 L126.581,76.713 L127.162,76.713 C126.968,77.993 126.406,78.633 125.476,78.633 L125.476,79.156 L126.290,79.156 L126.290,79.447 C124.662,80.842 123.847,81.657 123.847,81.889 L124.138,81.889 C124.487,81.735 124.758,81.657 124.952,81.657 L125.243,82.180 L124.662,82.471 L124.138,82.180 C124.138,83.033 121.870,84.681 117.334,87.123 C115.085,88.015 112.527,88.460 109.658,88.460 C106.905,87.841 104.443,86.658 102.272,84.913 C100.838,83.673 99.210,79.757 97.388,73.166 L97.388,71.247 C98.085,65.393 100.353,59.753 104.192,54.324 C106.944,52.774 109.037,50.777 110.472,48.334 C114.116,45.582 115.939,44.031 115.939,43.682 C115.939,43.217 117.760,42.403 121.405,41.240 L121.405,40.949 C121.056,40.949 120.882,40.775 120.882,40.426 L120.882,39.611 L121.114,39.611 C121.385,39.611 122.219,39.786 123.615,40.135 C123.925,39.980 124.274,39.902 124.662,39.902 L127.686,43.159 C128.422,44.787 129.061,47.966 129.605,52.696 C129.372,54.324 127.181,57.794 123.033,63.106 C122.257,63.106 120.803,64.017 118.672,65.839 C117.779,66.343 116.869,67.060 115.939,67.990 L115.939,68.281 L116.462,68.281 C116.462,68.592 115.376,69.134 113.205,69.909 C110.142,72.314 107.777,73.593 106.111,73.748 C105.762,73.554 105.490,73.457 105.296,73.457 C104.986,73.651 104.618,73.748 104.192,73.748 L104.192,73.457 L104.482,72.933 L103.959,72.933 C103.222,73.205 102.854,73.826 102.854,74.794 C103.319,76.617 104.676,77.528 106.925,77.528 L109.658,77.528 C111.519,77.528 114.795,75.997 119.486,72.933 C119.835,73.089 120.106,73.166 120.300,73.166 C120.377,72.585 120.843,72.139 121.696,71.829 L127.395,67.700 C127.937,67.700 128.751,68.069 129.837,68.805 C129.643,70.046 129.023,71.053 127.976,71.829 C128.325,71.829 128.500,71.907 128.500,72.061 C130.477,70.976 131.756,70.433 132.338,70.433 L132.338,71.014 C130.593,72.798 128.577,74.620 126.290,76.481 L126.057,76.481 ZM105.820,68.514 C106.788,68.320 108.165,67.138 109.949,64.966 C110.840,64.966 113.845,61.981 118.963,56.011 C119.544,55.391 120.726,53.743 122.510,51.068 C122.510,50.719 122.315,50.544 121.928,50.544 C121.812,50.855 119.815,52.114 115.939,54.324 C109.852,60.295 106.401,64.676 105.587,67.467 C105.742,67.778 105.820,68.127 105.820,68.514 ZM119.777,82.703 C118.846,82.936 118.381,83.227 118.381,83.576 L118.381,83.808 L119.195,83.808 C119.466,83.808 119.738,83.537 120.009,82.994 C119.854,82.994 119.777,82.898 119.777,82.703 ZM121.405,81.889 L121.114,81.889 C120.765,81.967 120.591,82.161 120.591,82.471 L120.591,82.994 C120.940,82.801 121.211,82.703 121.405,82.703 L121.405,81.889 ZM121.928,81.657 L121.928,81.889 C123.169,80.998 124.002,80.552 124.429,80.552 L124.429,80.261 L123.324,80.261 C123.091,80.261 122.626,80.726 121.928,81.657 ZM124.138,78.109 L124.138,78.342 L124.662,78.342 C125.553,77.877 126.018,77.528 126.057,77.295 L125.476,77.004 C124.662,77.353 124.215,77.722 124.138,78.109 ZM128.209,72.933 L128.209,72.352 C126.930,72.546 126.290,72.817 126.290,73.166 L126.290,73.980 C126.793,73.282 127.433,72.933 128.209,72.933 ZM98.892,41.356 L98.253,41.356 L98.253,41.123 C98.718,40.116 99.009,39.611 99.125,39.611 C99.125,39.030 98.756,38.739 98.020,38.739 C98.058,38.352 98.253,38.158 98.602,38.158 C98.602,38.390 98.698,38.507 98.892,38.507 C98.931,38.119 99.125,37.925 99.474,37.925 L99.707,38.507 C99.590,40.406 99.319,41.356 98.892,41.356 ZM38.238,27.108 L38.820,27.108 L38.820,29.144 L38.238,29.144 L38.238,28.271 C38.238,28.078 38.355,27.981 38.587,27.981 L38.238,27.399 L38.238,27.108 ZM2.706,31.179 L2.125,31.179 L2.125,30.307 L2.706,30.307 L2.706,31.179 ZM29.515,95.846 L29.515,97.591 L28.934,97.591 L28.934,95.846 L29.515,95.846 ZM38.006,66.420 L38.238,64.966 L38.820,64.966 C38.820,65.277 39.013,65.684 39.401,66.188 C39.401,66.420 39.130,66.692 38.587,67.002 C38.199,67.002 38.006,66.808 38.006,66.420 ZM58.359,93.578 C58.359,93.966 58.165,94.160 57.778,94.160 L57.487,94.160 C57.293,93.113 57.196,92.531 57.196,92.415 L57.778,92.066 C58.165,92.144 58.359,92.338 58.359,92.648 L58.359,93.578 ZM60.104,84.506 C60.104,84.700 60.200,84.797 60.395,84.797 C60.046,86.232 59.871,87.104 59.871,87.414 L58.359,87.123 L58.359,86.541 C58.746,86.541 59.328,85.864 60.104,84.506 ZM61.267,80.435 C60.879,80.435 60.686,80.242 60.686,79.854 L61.267,79.563 L61.849,79.563 L61.849,79.854 C61.849,80.242 61.654,80.435 61.267,80.435 ZM63.070,75.143 L63.302,75.143 C63.031,76.539 62.643,77.237 62.139,77.237 C62.139,77.043 62.042,76.946 61.849,76.946 C62.275,75.745 62.682,75.143 63.070,75.143 ZM65.338,69.619 L65.338,69.968 C64.950,70.433 64.756,70.898 64.756,71.363 L64.233,71.363 L64.233,70.549 C64.233,70.239 64.504,69.929 65.047,69.619 L65.338,69.619 ZM66.850,65.257 C66.850,65.801 66.443,67.060 65.629,69.037 L65.047,69.037 L65.047,68.746 C65.047,68.553 65.454,67.390 66.268,65.257 L66.850,65.257 ZM67.664,62.408 L67.664,63.222 L67.082,63.222 L67.082,62.989 C67.160,62.602 67.353,62.408 67.664,62.408 ZM70.862,49.265 L70.862,48.683 C70.940,48.296 71.133,48.102 71.444,48.102 L71.793,48.102 L71.793,48.683 C71.793,49.071 71.598,49.265 71.211,49.265 L70.862,49.265 ZM97.439,37.576 C97.051,38.972 96.857,39.767 96.857,39.960 L97.090,39.960 L98.020,39.321 L98.253,39.321 L98.253,39.611 C96.702,41.162 95.927,42.248 95.927,42.868 C95.927,43.062 96.043,43.353 96.276,43.740 C96.043,45.291 95.732,46.066 95.345,46.066 L95.694,46.648 C95.267,49.362 94.957,50.719 94.764,50.719 L95.054,51.300 L95.054,52.463 C94.278,52.463 93.891,53.239 93.891,54.790 L93.891,55.371 L94.473,56.243 C94.473,56.515 94.201,56.806 93.659,57.116 C93.659,56.922 93.542,56.825 93.310,56.825 C93.310,57.639 93.115,58.706 92.728,60.023 L93.310,59.791 L93.659,59.791 L92.728,62.640 L91.856,62.059 L91.565,62.640 L91.565,62.989 L91.856,62.989 L92.496,62.640 L92.496,63.222 C92.496,64.385 91.991,64.966 90.984,64.966 L91.565,66.188 C91.565,66.382 91.003,67.157 89.879,68.514 L90.460,69.386 L90.460,69.619 C89.684,69.619 89.297,70.200 89.297,71.363 L89.530,71.363 L90.111,71.131 C90.111,73.651 89.045,75.783 86.913,77.528 L87.204,78.109 L87.204,78.691 C87.204,79.079 87.009,79.272 86.622,79.272 C86.428,78.885 86.331,78.574 86.331,78.342 L86.099,78.342 C86.099,78.574 85.982,78.885 85.750,79.272 C86.331,79.272 86.622,79.467 86.622,79.854 L86.099,80.145 L85.750,80.145 L85.168,79.854 L84.877,80.435 C85.071,80.435 85.362,80.533 85.750,80.726 C86.137,80.533 86.428,80.435 86.622,80.435 L86.622,80.726 C86.041,81.230 85.168,82.994 84.005,86.018 C83.268,87.143 82.784,87.704 82.551,87.704 L82.202,87.704 L81.679,87.414 C81.679,87.724 81.485,88.112 81.098,88.577 L81.098,88.868 L81.679,88.868 L81.098,89.798 C81.098,91.116 81.679,92.066 82.842,92.648 L81.679,93.811 C81.291,93.656 81.000,93.578 80.807,93.578 L80.516,94.160 L81.098,94.974 C80.554,95.401 79.586,96.874 78.190,99.393 L77.317,99.975 L77.027,99.975 L77.027,99.393 L76.736,99.393 C76.736,101.176 76.154,102.243 74.991,102.592 C74.991,103.212 74.003,104.181 72.026,105.500 L72.374,106.081 C72.374,106.352 72.064,106.643 71.444,106.953 L71.211,106.953 L71.211,105.790 C70.901,105.790 70.591,106.081 70.281,106.663 C70.514,107.012 70.630,107.302 70.630,107.535 L70.048,107.535 L70.048,106.953 L69.467,106.953 C69.467,108.504 68.982,109.279 68.013,109.279 L68.013,109.570 C68.555,109.570 68.827,109.764 68.827,110.152 L65.338,111.896 L61.849,111.664 L59.290,111.664 L59.290,111.024 L58.359,111.024 L58.359,111.664 L58.069,111.664 C53.803,109.764 51.672,106.139 51.672,100.789 L51.672,99.626 C51.672,99.200 51.768,98.832 51.962,98.521 C51.768,98.172 51.672,97.785 51.672,97.358 C51.672,96.816 51.846,96.234 52.195,95.613 C52.040,95.187 51.962,94.877 51.962,94.683 C52.389,94.683 52.873,92.648 53.416,88.577 L53.416,87.414 C53.843,87.414 54.618,85.378 55.742,81.308 C55.355,80.688 55.161,80.203 55.161,79.854 C55.510,79.854 56.091,78.885 56.906,76.946 L56.906,76.655 L56.615,76.655 L50.218,87.995 L47.310,92.996 L46.729,92.648 L46.438,92.648 L46.438,92.996 L47.019,92.996 C47.019,93.617 45.546,95.943 42.600,99.975 L42.949,99.975 L44.403,98.521 C44.403,98.716 44.480,98.812 44.635,98.812 C44.635,98.502 45.022,98.095 45.798,97.591 L46.147,97.591 L46.147,98.172 C44.751,99.917 44.054,101.099 44.054,101.720 L42.600,101.952 C42.600,101.564 42.891,101.371 43.472,101.371 L43.472,100.556 L41.786,101.371 L42.018,102.883 C40.855,103.697 40.274,104.375 40.274,104.918 C37.753,106.003 36.494,106.682 36.494,106.953 L37.075,106.953 C37.462,106.759 37.773,106.663 38.006,106.663 L38.006,107.535 L36.843,107.535 L35.912,106.953 L34.749,106.953 C34.051,106.953 33.179,106.856 32.132,106.663 C31.783,106.856 31.492,106.953 31.260,106.953 C31.027,106.682 29.457,106.081 26.549,105.151 C24.843,103.483 23.991,100.769 23.991,97.009 L24.281,97.009 L24.281,96.428 L23.991,94.392 L24.572,94.392 L24.572,93.229 C24.572,93.075 24.475,92.996 24.281,92.996 L24.572,92.415 C24.378,91.989 24.281,91.679 24.281,91.484 C24.863,91.291 25.154,90.728 25.154,89.798 C24.959,89.798 24.863,89.682 24.863,89.449 C25.250,89.449 25.444,89.158 25.444,88.577 C25.250,88.190 25.154,87.899 25.154,87.704 C25.503,87.704 25.968,86.639 26.549,84.506 C26.394,84.157 26.317,83.866 26.317,83.634 L26.898,83.343 L26.549,82.761 C27.673,80.784 28.565,78.846 29.224,76.946 C29.030,76.559 28.934,76.268 28.934,76.074 C29.244,76.074 29.825,75.299 30.678,73.748 C30.484,73.748 30.387,73.631 30.387,73.399 C31.124,72.663 31.802,71.112 32.423,68.746 C32.849,68.746 33.063,68.553 33.063,68.165 C32.830,68.165 32.714,68.088 32.714,67.932 C33.450,67.778 34.419,65.335 35.621,60.605 C36.047,60.605 36.455,60.140 36.843,59.209 C37.230,59.209 37.424,59.093 37.424,58.860 C37.192,58.511 37.075,58.221 37.075,57.988 C37.346,57.988 37.850,57.290 38.587,55.894 C38.355,55.546 38.238,55.275 38.238,55.080 C38.974,53.917 39.459,53.336 39.692,53.336 C39.692,53.530 39.808,53.626 40.041,53.626 L40.041,53.336 L39.692,52.696 L43.472,44.554 L47.601,34.145 C48.841,30.036 49.616,27.981 49.927,27.981 L49.578,27.399 C50.004,26.624 50.314,26.236 50.509,26.236 C50.509,26.003 50.411,25.887 50.218,25.887 C50.411,23.988 50.509,22.534 50.509,21.526 L50.509,21.293 C49.772,17.184 47.736,15.129 44.403,15.129 C44.170,15.129 44.054,15.245 44.054,15.478 L42.600,15.129 L41.437,15.129 C40.506,15.905 39.925,16.292 39.692,16.292 L39.692,16.059 L39.111,16.292 L38.587,16.292 L38.006,16.059 L37.657,16.641 L37.657,17.222 L38.238,16.932 L38.587,17.513 L38.587,17.746 C38.355,17.746 38.044,17.862 37.657,18.095 C37.889,19.103 38.276,19.878 38.820,20.421 L38.587,20.421 L38.820,21.002 L38.820,21.293 L38.238,21.293 L38.238,20.711 L38.006,20.711 L38.006,22.107 L39.401,23.038 C39.401,23.426 39.130,23.619 38.587,23.619 L38.820,25.655 L38.587,26.236 L38.006,25.887 L37.657,25.887 L37.657,27.399 L37.424,27.981 L38.006,28.271 C37.462,31.644 36.474,34.940 35.040,38.158 C35.040,38.701 33.973,40.949 31.841,44.903 C31.841,45.679 31.260,46.454 30.097,47.230 L30.387,47.753 C30.193,48.141 30.097,48.451 30.097,48.683 L29.864,48.683 L29.224,48.334 C29.224,49.032 28.836,49.925 28.061,51.010 C25.735,54.266 24.184,55.894 23.409,55.894 C23.409,57.252 22.808,58.046 21.606,58.279 C20.714,59.714 19.455,60.683 17.826,61.186 C15.422,63.319 13.484,64.385 12.011,64.385 C10.383,64.385 9.413,64.870 9.103,65.839 C4.761,65.839 1.834,64.385 0.322,61.477 C0.322,61.206 0.244,59.849 0.089,57.406 L0.322,56.825 L0.089,56.243 C0.128,55.391 0.516,54.519 1.253,53.626 L1.253,53.336 L0.671,53.336 C1.407,48.683 2.279,46.357 3.288,46.357 L2.997,45.718 L2.997,44.903 C2.997,44.516 3.404,44.322 4.218,44.322 L3.869,43.740 L3.869,43.159 L4.451,43.391 L4.742,43.391 L4.742,43.159 L4.218,42.286 L5.614,39.321 C4.296,36.956 3.637,35.405 3.637,34.668 L4.218,34.668 C4.567,35.871 4.742,36.568 4.742,36.762 L5.323,36.762 L5.323,36.413 L3.288,30.888 C3.521,30.579 3.637,30.211 3.637,29.783 C3.016,29.783 2.706,29.571 2.706,29.144 C3.093,29.144 3.288,28.950 3.288,28.562 C3.093,27.981 2.900,27.690 2.706,27.690 L2.997,27.108 C2.803,25.403 2.706,24.337 2.706,23.910 C2.900,22.204 2.997,21.139 2.997,20.711 L2.125,20.711 L2.125,21.002 C2.318,21.351 2.416,21.642 2.416,21.875 L2.125,21.875 L2.416,22.456 C2.416,22.728 2.125,23.019 1.543,23.328 C1.155,23.328 0.962,23.116 0.962,22.689 C1.349,22.689 1.543,22.495 1.543,22.107 L1.543,20.421 L2.125,20.421 C1.737,19.180 1.543,18.405 1.543,18.095 L2.125,17.746 C2.202,18.134 2.396,18.327 2.706,18.327 C2.706,16.699 3.481,14.954 5.033,13.093 L5.033,12.512 L4.742,12.512 C4.742,12.279 5.129,11.620 5.905,10.535 L5.905,9.953 L5.033,10.535 L4.742,10.535 L4.742,10.186 C5.710,8.287 6.408,7.336 6.835,7.336 L8.231,7.569 C10.053,5.475 11.235,4.409 11.778,4.370 L12.011,4.370 L12.011,4.952 C12.398,4.952 12.592,4.758 12.592,4.370 C12.476,4.370 12.088,4.177 11.429,3.789 L11.429,3.556 C12.088,2.858 13.852,1.870 16.721,0.590 C16.760,0.978 16.954,1.172 17.303,1.172 C18.272,0.397 18.834,0.009 18.989,0.009 C19.493,0.009 20.753,0.203 22.769,0.590 C23.196,0.358 23.505,0.241 23.700,0.241 C25.405,0.823 27.732,2.200 30.678,4.370 C33.973,5.999 36.299,7.743 37.657,9.604 L37.657,9.953 L37.075,9.953 L37.075,10.186 L37.424,10.767 L38.006,10.535 C38.393,10.574 38.587,10.767 38.587,11.116 L38.238,11.698 C38.974,11.698 39.576,11.892 40.041,12.279 L40.274,12.279 L40.274,11.698 L40.855,11.930 L42.018,11.930 L42.018,11.349 L44.984,11.698 C45.061,11.698 45.449,11.581 46.147,11.349 C46.147,11.660 47.097,12.047 48.997,12.512 C52.331,14.373 53.998,17.688 53.998,22.456 C53.998,26.721 53.222,29.725 51.672,31.470 L51.381,31.470 L51.381,32.051 C51.768,32.051 51.962,32.149 51.962,32.342 L51.090,33.796 C51.284,33.796 51.381,33.912 51.381,34.145 C50.179,34.494 49.384,34.668 48.997,34.668 L48.997,35.831 L50.509,34.668 C50.896,34.668 51.090,34.959 51.090,35.541 C50.896,36.355 50.509,36.762 49.927,36.762 L48.415,36.413 L48.415,36.995 L49.927,36.995 C49.811,38.701 48.648,41.609 46.438,45.718 C44.344,50.642 43.278,53.375 43.239,53.917 L42.600,53.917 L42.600,55.662 C41.669,56.825 41.204,57.504 41.204,57.697 C41.359,57.697 41.437,57.794 41.437,57.988 C41.242,57.988 40.370,59.539 38.820,62.640 C39.207,62.718 39.401,62.912 39.401,63.222 C38.199,63.222 37.540,64.405 37.424,66.769 L38.238,68.165 C37.308,70.530 36.726,71.712 36.494,71.712 L36.494,70.549 L36.261,70.549 C36.261,70.937 35.854,71.131 35.040,71.131 C35.040,71.868 35.447,72.449 36.261,72.875 C35.136,75.589 34.264,76.946 33.644,76.946 L33.877,77.528 C33.256,78.304 32.577,78.691 31.841,78.691 L31.841,79.563 L32.423,79.563 L32.423,80.435 C32.035,81.211 31.744,81.598 31.551,81.598 L31.841,83.052 C31.065,85.573 30.407,87.220 29.864,87.995 L29.224,87.704 C28.836,87.704 28.448,88.402 28.061,89.798 L28.643,89.798 C28.643,89.178 28.836,88.868 29.224,88.868 L29.864,88.868 L29.864,89.798 L28.934,90.903 C29.399,91.484 29.786,91.775 30.097,91.775 L30.097,92.415 C29.127,92.454 28.643,92.648 28.643,92.996 L28.934,93.578 L28.643,94.160 C28.836,94.508 28.934,94.780 28.934,94.974 L28.352,95.264 L28.643,96.776 L28.643,99.626 C29.806,101.254 30.387,102.243 30.387,102.592 C33.063,102.320 35.408,101.060 37.424,98.812 C43.549,91.912 49.655,82.180 55.742,69.619 C55.742,69.386 56.711,67.254 58.650,63.222 C60.395,58.686 61.945,55.294 63.302,53.045 C64.969,48.820 66.423,45.427 67.664,42.868 L68.013,42.868 C68.013,43.062 68.090,43.159 68.246,43.159 C68.246,41.260 69.311,38.429 71.444,34.668 L72.026,34.959 C72.452,34.766 72.762,34.668 72.956,34.668 C72.956,35.017 73.440,35.715 74.410,36.762 C74.797,37.538 74.991,38.197 74.991,38.739 L75.224,38.739 L76.154,38.158 L76.736,38.158 L76.736,38.739 C75.960,39.204 75.573,39.806 75.573,40.542 C75.573,40.930 75.378,41.123 74.991,41.123 C74.642,40.891 74.254,40.775 73.828,40.775 C73.828,41.705 73.227,42.772 72.026,43.973 C72.258,44.361 72.374,44.671 72.374,44.903 C72.142,45.252 72.026,45.524 72.026,45.718 L72.956,45.718 C72.956,45.175 73.130,44.903 73.479,44.903 L73.828,44.903 L73.828,45.485 C72.587,46.997 71.909,47.753 71.793,47.753 L71.211,47.520 L69.699,50.719 L69.699,51.010 L70.048,51.010 C70.048,50.428 70.242,50.137 70.630,50.137 L70.862,50.137 C70.514,51.998 70.126,52.968 69.699,53.045 L68.827,53.045 C68.827,53.239 68.633,53.336 68.246,53.336 L68.246,54.208 L68.827,54.208 C68.672,56.534 68.090,57.697 67.082,57.697 C67.315,58.085 67.431,58.376 67.431,58.570 C66.734,60.470 65.841,62.330 64.756,64.152 C64.950,64.501 65.047,64.773 65.047,64.966 C64.271,65.354 63.884,65.839 63.884,66.420 L63.884,67.351 C62.294,72.158 61.034,74.562 60.104,74.562 L60.104,74.911 L60.686,75.725 L60.686,76.074 L58.650,81.889 L58.650,83.343 L58.069,83.343 L58.359,83.925 C57.778,84.700 57.487,85.282 57.487,85.669 L57.778,87.414 L56.091,90.380 L56.091,90.903 C56.130,91.291 56.304,91.484 56.615,91.484 C56.420,92.958 56.246,93.927 56.091,94.392 C56.246,94.392 56.324,94.489 56.324,94.683 L57.778,94.392 L58.069,94.392 C58.069,94.664 57.874,95.730 57.487,97.591 L58.069,97.591 L58.069,97.940 C58.069,98.909 57.971,100.362 57.778,102.301 L57.196,102.301 L57.196,103.755 L56.906,105.151 C57.603,106.352 58.088,106.953 58.359,106.953 C64.989,104.821 71.986,97.242 79.353,84.215 C81.252,80.688 82.609,77.586 83.424,74.911 C84.974,72.585 86.718,67.720 88.657,60.314 C89.433,56.864 90.033,55.119 90.460,55.080 L90.111,54.499 C90.693,51.591 91.177,50.137 91.565,50.137 L91.274,49.498 L91.274,48.916 C91.274,48.762 91.371,48.683 91.565,48.683 L91.274,48.102 C91.274,46.939 91.681,46.357 92.496,46.357 L92.147,45.718 L92.147,45.485 C93.310,40.019 93.891,36.995 93.891,36.413 C93.736,35.754 93.659,35.366 93.659,35.250 C94.085,35.250 94.550,34.882 95.054,34.145 C95.481,35.075 95.694,35.831 95.694,36.413 C95.267,36.491 95.054,36.685 95.054,36.995 L95.694,37.343 C96.237,36.375 96.508,35.483 96.508,34.668 L97.439,34.668 L97.439,36.180 L97.671,36.762 L97.090,36.995 L97.439,37.576 ZM25.154,97.358 C25.192,97.746 25.386,97.940 25.735,97.940 L25.735,94.392 L25.444,94.392 L25.154,97.358 ZM26.549,91.194 L25.968,91.194 L25.735,91.775 L25.735,92.996 L25.968,92.996 C25.968,91.989 26.161,91.484 26.549,91.484 L26.549,91.194 ZM26.549,102.592 C26.317,101.778 26.045,101.371 25.735,101.371 L25.735,101.720 C25.890,102.068 25.968,102.456 25.968,102.883 L26.549,102.883 L26.549,102.592 ZM37.657,25.364 L38.238,25.364 L38.238,24.491 C37.850,24.570 37.657,24.763 37.657,25.073 L37.657,25.364 ZM2.416,57.988 L2.125,57.988 L2.125,59.209 L2.416,59.209 L2.416,57.988 ZM26.898,47.520 C27.285,47.520 27.480,47.327 27.480,46.939 L27.480,46.648 C27.092,46.687 26.898,46.881 26.898,47.230 L26.898,47.520 ZM4.742,45.136 L4.451,45.136 C4.451,45.796 4.373,46.299 4.218,46.648 L4.742,46.939 L4.742,45.136 ZM5.905,38.739 L6.196,38.739 L6.196,37.925 C6.196,37.538 6.001,37.343 5.614,37.343 L5.323,37.343 C5.710,37.925 5.905,38.390 5.905,38.739 ZM4.218,28.562 C4.218,29.532 4.489,30.016 5.033,30.016 C5.033,30.249 4.935,30.539 4.742,30.888 L4.742,31.470 L5.033,31.470 C5.033,30.888 5.226,30.598 5.614,30.598 L5.323,28.853 L5.033,28.853 L5.033,29.435 L4.451,29.435 L4.451,27.981 L5.033,27.981 L5.033,27.108 C4.800,27.108 4.528,27.399 4.218,27.981 L4.218,28.562 ZM4.451,20.130 L4.742,21.526 L4.218,21.293 L3.869,21.293 C3.869,21.797 4.063,22.379 4.451,23.038 C3.908,23.038 3.637,23.232 3.637,23.619 L3.637,24.782 C3.791,24.782 4.063,24.879 4.451,25.073 L4.742,23.619 L4.451,23.038 L5.323,23.038 L5.323,25.364 L5.614,25.364 C5.614,22.805 5.808,21.526 6.196,21.526 C6.545,21.758 6.835,21.875 7.068,21.875 C7.455,21.371 7.649,20.983 7.649,20.711 L7.417,20.130 C7.571,19.781 7.649,19.490 7.649,19.258 L7.068,19.258 C7.068,20.227 6.873,20.711 6.486,20.711 L6.196,20.711 C7.164,16.059 8.037,13.733 8.812,13.733 L8.812,13.093 L8.231,13.093 C7.417,14.644 6.545,17.184 5.614,20.711 L5.033,20.711 C5.033,20.595 5.226,19.529 5.614,17.513 C4.838,17.591 4.451,18.463 4.451,20.130 ZM12.011,11.349 L11.429,11.349 L11.429,11.116 L11.778,10.535 L11.429,10.535 C10.266,11.581 9.685,12.357 9.685,12.861 L9.685,13.093 L10.034,13.093 C10.111,12.318 10.383,11.930 10.848,11.930 L11.197,11.930 L11.197,12.512 C10.886,12.512 10.188,13.307 9.103,14.896 C9.103,14.664 9.006,14.547 8.812,14.547 C8.812,15.323 8.618,15.710 8.231,15.710 L8.580,16.292 L8.580,16.641 L7.998,16.292 L7.998,16.932 C8.385,16.932 8.580,17.126 8.580,17.513 L8.812,17.513 C8.812,17.048 9.878,14.993 12.011,11.349 ZM10.266,15.710 L10.266,16.059 L10.615,16.059 L10.848,14.896 C10.460,14.896 10.266,15.168 10.266,15.710 ZM12.592,11.116 C12.592,10.767 13.077,10.069 14.046,9.023 L14.046,8.732 L13.814,8.732 C13.814,8.964 13.212,9.760 12.011,11.116 L12.592,11.116 ZM10.615,10.767 L10.615,10.186 L10.266,10.186 C9.878,10.264 9.685,10.457 9.685,10.767 L9.685,11.116 C10.072,10.884 10.383,10.767 10.615,10.767 ZM8.580,17.746 L8.231,17.746 C7.843,17.824 7.649,18.017 7.649,18.327 L7.649,18.676 C8.037,18.444 8.347,18.327 8.580,18.327 L8.580,17.746 ZM5.614,15.129 C5.808,15.517 5.905,15.827 5.905,16.059 C6.525,15.827 6.835,15.245 6.835,14.315 L6.835,13.733 C6.603,13.733 6.292,13.617 5.905,13.384 L6.196,14.896 L6.196,15.129 L5.614,15.129 ZM7.417,13.384 L7.417,12.512 L7.068,12.512 C7.068,12.744 6.990,13.035 6.835,13.384 L7.417,13.384 ZM7.649,7.918 L7.068,7.918 L6.196,9.023 L6.196,9.313 C6.893,8.538 7.378,8.150 7.649,8.150 L7.649,7.918 ZM7.649,12.279 L7.649,12.861 C8.076,12.861 8.385,12.357 8.580,11.349 C8.269,11.349 7.959,11.660 7.649,12.279 ZM9.394,11.930 L8.812,11.930 L8.812,12.861 C9.200,12.861 9.394,12.667 9.394,12.279 L9.394,11.930 ZM11.429,5.533 C11.429,5.921 11.158,6.115 10.615,6.115 L10.848,7.569 C10.072,7.880 9.685,8.189 9.685,8.499 L9.685,8.732 L10.034,8.732 L10.848,8.150 L11.197,8.150 L11.197,8.499 C11.197,8.655 11.080,8.732 10.848,8.732 C11.080,9.120 11.197,9.411 11.197,9.604 L11.778,9.604 C11.778,8.945 12.049,8.267 12.592,7.569 L11.429,5.533 ZM15.209,4.952 C14.084,5.805 13.328,6.289 12.941,6.406 L12.941,6.987 C14.686,5.824 15.558,5.146 15.558,4.952 L15.209,4.952 ZM17.594,1.753 L17.594,2.335 L18.175,2.335 C18.562,2.335 18.757,2.141 18.757,1.753 L17.594,1.753 ZM19.920,3.207 C18.757,3.440 18.175,3.751 18.175,4.138 L18.408,4.138 C19.804,3.905 20.501,3.595 20.501,3.207 L19.920,3.207 ZM33.063,12.512 L32.714,12.512 L32.714,11.698 C32.714,11.465 32.830,11.349 33.063,11.349 C30.581,7.860 28.720,6.115 27.480,6.115 C26.471,5.921 25.308,5.824 23.991,5.824 C19.260,7.143 15.655,9.857 13.174,13.966 C10.848,16.873 9.685,21.448 9.685,27.690 L9.685,28.562 L10.266,32.051 L10.615,32.051 L12.592,29.144 L14.046,29.144 L13.814,28.562 L16.372,25.364 C18.039,23.814 19.222,23.038 19.920,23.038 C19.920,22.379 20.792,21.507 22.537,20.421 L22.537,19.839 L22.769,19.839 L23.409,20.130 C23.409,18.812 24.668,17.940 27.189,17.513 C27.538,17.010 28.992,16.021 31.551,14.547 C31.551,14.393 31.647,14.315 31.841,14.315 L32.423,14.547 C33.237,14.431 33.644,13.675 33.644,12.279 L33.063,12.512 ZM12.011,32.342 C12.127,32.769 12.321,32.982 12.592,32.982 L12.941,32.342 L12.011,32.342 ZM15.558,28.271 L15.558,28.562 L16.140,28.562 C16.527,28.562 16.721,28.369 16.721,27.981 L16.140,27.690 C15.752,27.768 15.558,27.962 15.558,28.271 ZM22.537,21.293 L22.537,21.875 L23.118,21.875 C23.118,21.487 23.312,21.293 23.700,21.293 L23.700,20.711 L23.118,20.711 C23.118,21.099 22.924,21.293 22.537,21.293 ZM29.515,16.932 L29.515,17.222 L29.864,17.222 C30.213,17.029 30.484,16.932 30.678,16.932 L30.678,16.641 C30.484,16.641 30.213,16.524 29.864,16.292 L29.515,16.932 ZM31.260,16.059 L31.551,16.641 C31.938,16.408 32.228,16.292 32.423,16.292 L32.423,16.059 L31.260,16.059 ZM34.749,20.421 C34.749,20.266 34.458,19.006 33.877,16.641 L33.295,16.641 C30.775,17.610 29.515,18.483 29.515,19.258 L30.097,19.258 L30.678,18.909 L30.678,19.258 C30.600,19.646 30.116,20.034 29.224,20.421 L27.771,19.839 C27.771,20.034 27.673,20.130 27.480,20.130 L27.771,20.711 L27.771,21.002 L27.189,21.002 L27.189,20.421 L25.735,20.711 C25.735,20.518 25.638,20.421 25.444,20.421 C25.444,20.848 24.359,21.914 22.188,23.619 C22.188,23.426 22.110,23.328 21.955,23.328 C21.025,24.686 20.346,25.364 19.920,25.364 L20.211,25.887 C20.016,25.887 19.416,26.294 18.408,27.108 L17.012,26.818 C17.012,27.050 16.915,27.341 16.721,27.690 L17.303,27.690 L17.303,27.981 C16.256,28.989 15.675,30.055 15.558,31.179 L14.395,31.179 L14.628,31.761 C12.728,33.854 11.778,35.212 11.778,35.831 C12.709,39.631 15.616,43.915 20.501,48.683 L20.501,49.265 C19.416,49.420 18.640,49.498 18.175,49.498 C17.050,48.916 15.596,47.966 13.814,46.648 C12.030,46.648 9.976,45.272 7.649,42.519 C6.486,45.350 5.226,49.052 3.869,53.626 C4.102,55.022 4.218,55.778 4.218,55.894 L3.869,55.894 C3.869,56.127 3.986,56.243 4.218,56.243 L3.869,57.697 L3.869,58.570 C3.869,58.997 4.257,59.209 5.033,59.209 L5.033,61.768 L5.614,61.477 L5.905,61.477 C5.905,61.672 6.001,61.981 6.196,62.408 C10.848,62.408 15.984,59.384 21.606,53.336 C21.993,53.530 22.304,53.626 22.537,53.626 L22.188,53.045 L22.188,52.696 C30.562,41.609 34.749,31.335 34.749,21.875 L34.458,21.293 C34.652,20.906 34.749,20.615 34.749,20.421 ZM36.261,26.469 C35.834,26.585 35.621,26.799 35.621,27.108 L35.621,27.399 C36.047,27.399 36.261,27.206 36.261,26.818 L36.261,26.469 ZM37.424,11.349 L36.494,11.349 L36.494,11.930 C36.726,11.930 37.036,12.047 37.424,12.279 L37.424,11.349 ZM43.239,13.733 L41.786,13.733 L41.786,13.966 L43.239,13.966 L43.239,13.733 ZM52.195,25.073 C52.582,25.073 52.777,24.879 52.777,24.491 L52.544,24.491 C52.156,24.570 51.962,24.763 51.962,25.073 L52.195,25.073 ZM50.799,31.179 C51.265,31.179 51.555,30.404 51.672,28.853 L51.672,28.271 L51.381,28.271 C51.381,29.047 51.187,29.435 50.799,29.435 L50.799,31.179 ZM49.927,33.796 L50.509,33.796 L50.509,32.982 L49.927,32.982 L49.927,33.796 ZM47.834,41.123 L48.183,40.542 L47.310,40.542 C47.348,40.930 47.523,41.123 47.834,41.123 ZM46.729,43.391 L46.729,43.159 L46.438,43.159 C46.438,43.547 46.031,44.128 45.217,44.903 L45.217,45.136 L45.566,45.136 C46.069,45.136 46.457,44.554 46.729,43.391 ZM45.217,46.648 L45.566,46.066 L45.566,45.718 L44.403,45.718 C44.403,46.028 44.673,46.338 45.217,46.648 ZM43.239,50.719 L42.600,50.719 C42.600,51.184 42.328,51.649 41.786,52.114 L42.367,52.463 L43.239,51.010 L43.239,50.719 ZM42.949,53.336 L42.949,53.045 L41.786,53.045 L41.437,53.626 L41.786,53.626 C42.095,53.433 42.483,53.336 42.949,53.336 ZM40.855,55.662 C40.855,55.236 41.165,54.654 41.786,53.917 L40.855,53.917 C40.855,54.654 40.661,55.236 40.274,55.662 L40.855,55.662 ZM34.749,67.932 L35.040,67.932 C35.040,67.700 35.136,67.390 35.331,67.002 L34.749,67.002 L34.749,67.932 ZM30.969,76.074 L31.841,76.074 L31.841,75.725 C31.841,75.338 31.647,75.143 31.260,75.143 L30.969,75.725 L30.969,76.074 ZM30.097,83.925 L30.387,83.925 L30.387,82.761 L30.097,82.761 L30.097,83.925 ZM27.480,86.018 L27.189,86.018 L26.898,87.123 L26.898,87.995 L27.189,87.995 C27.189,87.143 27.285,86.561 27.480,86.251 L27.480,86.018 ZM28.643,91.484 L28.643,90.612 L28.061,90.612 C28.255,91.000 28.352,91.291 28.352,91.484 L28.643,91.484 ZM41.786,99.044 L41.786,99.393 L42.018,99.393 C42.018,99.084 42.212,98.676 42.600,98.172 L42.018,98.172 C42.018,98.405 41.940,98.696 41.786,99.044 ZM43.239,97.358 C42.812,97.397 42.600,97.591 42.600,97.940 L42.949,97.940 C43.298,97.940 43.472,97.746 43.472,97.358 L43.239,97.358 ZM72.026,47.230 L72.026,46.066 L71.444,46.066 C71.444,46.494 71.366,46.881 71.211,47.230 L72.026,47.230 ZM69.699,48.916 L69.699,48.102 L69.467,48.102 C69.467,48.296 69.350,48.567 69.118,48.916 L69.699,48.916 ZM67.431,48.683 L67.664,48.683 C67.664,48.451 67.780,48.141 68.013,47.753 L68.013,47.230 L67.664,47.230 C67.664,47.657 67.586,48.025 67.431,48.334 L67.431,48.683 ZM65.629,60.314 C66.055,60.314 66.268,60.140 66.268,59.791 L66.268,59.209 L65.629,59.209 L65.629,60.314 ZM56.091,105.151 L56.324,105.151 C56.324,104.995 56.420,104.724 56.615,104.336 L56.615,103.755 L56.324,103.755 C56.324,104.181 56.246,104.569 56.091,104.918 L56.091,105.151 ZM55.742,103.406 L56.091,103.406 L56.091,102.301 L55.742,102.301 L55.742,103.406 ZM52.777,99.044 L53.126,99.044 L53.707,98.812 C53.707,98.967 53.803,99.044 53.998,99.044 L53.998,98.172 C53.765,98.172 53.474,98.095 53.126,97.940 L52.777,98.521 L52.777,99.044 ZM53.707,93.811 L53.416,93.811 L53.416,95.264 L53.998,95.264 C53.803,94.955 53.707,94.470 53.707,93.811 ZM53.998,95.613 C53.649,95.769 53.358,95.846 53.126,95.846 L53.126,97.591 L53.998,97.591 L53.707,97.009 L53.707,96.776 L54.289,95.846 C54.094,95.846 53.998,95.769 53.998,95.613 ZM56.906,75.725 L57.196,75.725 C57.196,75.531 57.293,75.260 57.487,74.911 L56.906,74.911 L56.906,75.725 ZM50.509,86.541 C50.314,86.232 50.218,85.864 50.218,85.437 L49.578,85.437 L49.578,85.669 C49.888,86.445 50.198,86.832 50.509,86.832 L50.509,86.541 ZM51.672,82.122 L51.381,82.122 C51.381,82.549 51.187,82.761 50.799,82.761 L50.799,83.343 C51.109,83.343 51.400,83.052 51.672,82.471 L51.672,82.122 ZM51.962,81.889 L52.195,81.889 C52.195,81.657 52.311,81.366 52.544,81.017 L51.962,81.017 L51.962,81.889 ZM53.707,78.342 L53.416,78.342 C53.416,78.846 53.126,79.447 52.544,80.145 L53.126,80.435 L53.707,79.563 L53.707,78.342 ZM55.161,74.329 L55.742,74.329 C56.052,74.329 56.537,73.748 57.196,72.585 L57.196,71.363 L56.906,71.363 C56.711,71.363 56.130,72.352 55.161,74.329 ZM57.196,69.968 L57.778,70.200 L58.359,70.200 L58.650,68.165 C58.418,68.165 57.932,68.766 57.196,69.968 ZM58.650,67.351 C58.727,67.739 58.941,67.932 59.290,67.932 L59.523,67.932 L59.523,67.583 C59.367,67.196 59.290,66.925 59.290,66.769 C59.677,66.769 59.871,66.576 59.871,66.188 L59.871,65.839 C59.561,65.878 59.154,66.382 58.650,67.351 ZM60.976,61.768 C60.239,63.629 59.871,64.696 59.871,64.966 L59.871,65.548 L60.395,65.548 C60.976,64.385 61.363,63.125 61.558,61.768 L60.976,61.768 ZM63.302,58.570 L62.721,58.860 C62.721,58.667 62.643,58.570 62.488,58.570 L62.139,59.209 L62.139,59.791 L62.721,59.791 C62.721,59.404 62.914,59.209 63.302,59.209 L63.302,58.570 ZM63.884,56.534 L64.233,56.534 C64.233,56.341 64.310,56.050 64.466,55.662 L63.884,55.662 L63.884,56.534 ZM63.302,64.385 L63.302,63.571 L62.721,63.571 L62.488,64.676 C62.798,64.482 63.070,64.385 63.302,64.385 ZM61.558,69.968 L61.558,69.619 C61.363,69.309 61.267,68.941 61.267,68.514 C61.732,68.514 62.139,68.397 62.488,68.165 C62.256,67.778 62.139,67.506 62.139,67.351 L60.395,68.746 L60.395,70.200 L61.267,69.619 C61.267,69.851 61.363,69.968 61.558,69.968 ZM60.395,71.945 L60.686,71.945 C60.686,71.519 60.782,71.131 60.976,70.782 L60.395,70.782 C60.046,70.860 59.871,71.053 59.871,71.363 C59.910,71.751 60.084,71.945 60.395,71.945 ZM59.871,72.585 L59.871,71.945 L59.523,71.945 C59.523,72.875 59.134,73.864 58.359,74.911 L58.359,75.492 L58.650,75.492 C59.270,75.492 59.677,74.524 59.871,72.585 ZM58.650,76.365 L58.650,76.074 L58.359,76.074 C57.778,77.237 57.487,77.993 57.487,78.342 C57.720,78.342 58.107,77.683 58.650,76.365 ZM57.196,82.122 L56.906,81.598 C57.099,80.823 57.487,80.435 58.069,80.435 L58.069,79.854 L57.487,79.854 C56.673,80.862 55.703,84.061 54.579,89.449 C54.385,89.449 54.289,89.565 54.289,89.798 L54.289,90.903 L54.579,90.903 C54.966,90.709 55.257,90.612 55.452,90.612 C55.064,90.147 54.870,89.760 54.870,89.449 C55.568,87.937 56.343,85.495 57.196,82.122 ZM57.196,95.846 L56.324,95.264 C56.324,95.652 56.246,95.846 56.091,95.846 L55.161,95.846 C55.161,96.079 55.257,96.389 55.452,96.776 L55.161,98.521 L55.161,99.393 C55.548,99.393 55.742,99.103 55.742,98.521 L56.324,98.521 L56.324,100.208 L55.742,100.208 L55.742,100.556 C56.130,100.983 56.324,101.661 56.324,102.592 L56.615,102.592 C56.615,99.491 56.808,97.242 57.196,95.846 ZM67.431,109.279 C67.043,109.473 66.734,109.570 66.501,109.570 L66.501,110.152 L67.431,110.152 C67.431,109.919 67.509,109.628 67.664,109.279 L67.431,109.279 ZM77.841,97.009 C77.957,97.397 78.151,97.591 78.422,97.591 L78.422,96.776 L77.841,96.776 L77.841,97.009 ZM77.841,95.613 L79.004,95.846 L79.353,95.264 L77.841,94.974 L77.841,95.613 ZM74.061,100.556 L74.991,99.393 L74.991,99.044 C74.720,99.084 74.332,99.588 73.828,100.556 L74.061,100.556 ZM75.573,97.591 L74.642,97.591 L74.410,98.172 L74.410,98.521 L74.642,98.521 C74.642,98.134 74.952,97.940 75.573,97.940 L75.573,97.591 ZM77.027,92.066 L76.736,92.066 C76.736,92.299 76.639,92.609 76.445,92.996 L77.027,92.996 L77.027,92.066 ZM75.805,97.358 L75.805,97.940 L77.317,97.591 L77.317,96.195 L77.608,95.613 L77.027,95.613 C77.027,96.273 76.620,96.855 75.805,97.358 ZM78.771,92.648 C78.500,92.687 78.112,93.191 77.608,94.160 L78.190,94.392 L79.353,94.392 C79.353,94.005 79.449,93.811 79.644,93.811 C79.372,93.036 79.081,92.648 78.771,92.648 ZM80.225,86.832 L79.934,86.832 C79.934,87.414 79.740,87.704 79.353,87.704 L79.353,88.577 C79.624,88.577 79.914,88.190 80.225,87.414 L80.225,86.832 ZM79.934,90.903 L79.934,92.066 L80.807,92.066 C80.496,91.291 80.205,90.903 79.934,90.903 ZM84.005,84.215 L84.296,84.215 C84.296,84.022 84.392,83.731 84.587,83.343 L84.005,83.052 L84.005,84.215 ZM85.168,77.528 L84.587,77.528 L84.587,78.691 L85.168,78.691 L85.168,77.528 ZM85.750,74.911 C85.750,75.143 85.672,75.415 85.517,75.725 L86.331,75.725 C86.331,75.531 86.428,75.260 86.622,74.911 L85.750,74.911 ZM87.494,76.074 L87.785,76.074 L87.785,75.143 L87.204,75.143 C87.397,75.531 87.494,75.841 87.494,76.074 ZM88.367,70.549 C88.367,70.162 88.172,69.968 87.785,69.968 L87.785,70.782 L88.367,70.782 L88.367,70.549 ZM88.076,74.562 L88.657,74.911 L88.948,73.166 L88.948,72.875 L88.657,72.875 C88.657,73.186 88.463,73.748 88.076,74.562 ZM89.530,66.188 L88.657,66.188 L88.657,67.002 L88.948,67.002 C89.335,67.002 89.530,66.808 89.530,66.420 L89.530,66.188 ZM90.693,61.186 L91.565,60.605 C91.371,60.256 91.274,59.869 91.274,59.442 C90.886,59.481 90.693,59.674 90.693,60.023 L90.693,61.186 ZM92.496,57.697 L90.984,57.697 L90.984,58.570 L91.274,58.570 C91.778,58.182 92.185,57.988 92.496,57.988 L92.496,57.697 ZM93.891,44.903 C93.891,45.873 93.697,46.357 93.310,46.357 L93.659,46.939 L93.077,49.265 L93.659,49.498 L93.891,49.498 L94.764,45.136 L94.240,44.903 L93.891,44.903 ZM94.240,44.322 L95.054,44.322 C95.054,43.935 95.151,43.740 95.345,43.740 C95.151,43.353 95.054,43.062 95.054,42.868 L94.764,42.868 C94.415,42.907 94.240,43.082 94.240,43.391 L94.240,44.322 ZM95.927,39.321 C95.771,39.011 95.694,38.623 95.694,38.158 L95.345,38.158 C95.151,38.158 94.860,38.546 94.473,39.321 L94.764,40.775 C94.569,41.821 94.473,42.403 94.473,42.519 L94.764,42.519 C95.073,42.519 95.461,42.132 95.927,41.356 L95.694,39.611 C95.694,39.418 95.771,39.321 95.927,39.321 ZM7.998,44.554 C8.385,44.633 8.580,44.826 8.580,45.136 L7.998,45.485 L7.998,44.554 ZM5.905,49.498 L6.196,49.498 C6.622,49.614 6.835,49.827 6.835,50.137 L5.905,50.719 L5.905,49.498 ZM5.905,52.696 C5.478,53.898 5.091,54.499 4.742,54.499 L4.451,54.499 L4.742,51.591 L5.614,51.591 L5.323,52.114 C5.401,52.502 5.594,52.696 5.905,52.696 ZM5.033,56.825 L4.451,56.825 L4.451,55.662 L5.033,55.662 L5.033,56.825 ZM5.614,21.293 L5.614,21.526 C5.614,21.914 5.420,22.107 5.033,22.107 L4.742,21.526 L5.323,21.293 L5.614,21.293 ZM94.473,31.179 L95.054,31.179 L95.054,32.051 L94.473,32.051 L94.473,31.179 ZM45.798,96.428 L45.798,96.195 C45.915,95.808 46.127,95.613 46.438,95.613 L46.729,95.613 L46.729,96.428 C46.729,96.816 46.534,97.009 46.147,97.009 L45.798,96.428 ZM74.642,104.569 L74.642,104.918 C74.642,105.189 74.371,105.480 73.828,105.790 L73.479,105.790 L73.479,105.500 C73.479,105.189 73.789,104.879 74.410,104.569 L74.642,104.569 ZM85.750,84.215 L85.750,84.506 C85.633,86.057 85.343,86.832 84.877,86.832 L84.296,86.832 L84.296,86.541 C84.955,84.991 85.439,84.215 85.750,84.215 ZM86.913,81.889 L86.913,82.761 L86.331,82.761 L86.331,82.471 C86.370,82.084 86.564,81.889 86.913,81.889 ZM89.879,75.492 L90.111,75.492 L90.111,75.725 C89.723,76.190 89.530,76.792 89.530,77.528 L88.948,77.528 L88.948,77.237 C89.065,76.074 89.374,75.492 89.879,75.492 ZM89.879,74.562 L89.879,73.748 L90.693,73.748 L90.693,73.980 C90.693,74.368 90.498,74.562 90.111,74.562 L89.879,74.562 ZM127.686,78.342 L126.871,78.923 L126.581,78.923 L126.581,78.633 C126.581,78.362 126.851,78.090 127.395,77.818 L127.686,78.342 ZM146.171,61.594 L146.171,62.175 L145.764,62.175 C145.918,61.942 145.996,61.749 145.996,61.594 L146.171,61.594 ZM147.508,58.162 L147.508,58.570 C147.508,58.802 147.372,58.918 147.101,58.918 L146.927,58.918 C147.043,58.686 147.101,58.434 147.101,58.162 L147.508,58.162 ZM151.754,35.308 C152.606,33.409 153.110,32.459 153.266,32.459 L153.673,32.459 L153.673,32.633 L151.521,37.634 L150.765,38.390 L150.591,38.390 L150.591,38.216 C150.978,37.557 151.172,37.034 151.172,36.646 L151.172,35.715 L150.591,35.715 L150.591,35.308 L151.521,35.134 C151.521,35.250 151.598,35.308 151.754,35.308 ZM150.765,39.379 L150.765,39.728 C150.765,39.922 150.571,40.116 150.183,40.309 C149.951,40.309 149.835,40.174 149.835,39.902 C149.835,39.748 150.028,39.573 150.416,39.379 L150.765,39.379 ZM150.009,40.716 L150.009,40.891 C149.737,41.395 149.602,41.841 149.602,42.228 L149.253,42.228 L149.020,41.298 C149.020,40.988 149.349,40.794 150.009,40.716 ZM146.752,51.068 L146.927,51.068 L146.927,51.242 C146.694,51.669 146.578,52.056 146.578,52.405 C146.306,52.405 146.171,52.270 146.171,51.998 C146.325,51.378 146.520,51.068 146.752,51.068 ZM145.589,54.150 C145.589,53.181 145.783,52.658 146.171,52.580 L146.345,52.987 C145.996,53.879 145.744,54.324 145.589,54.324 L145.589,54.150 ZM144.077,58.162 L144.077,57.755 C144.115,57.523 144.232,57.406 144.426,57.406 L144.426,58.162 L144.077,58.162 ZM144.833,56.650 L144.833,56.999 C144.833,57.271 144.697,57.406 144.426,57.406 L144.426,56.650 L144.833,56.650 ZM143.496,60.838 C143.496,61.109 143.359,61.245 143.089,61.245 L142.914,61.245 L143.089,60.256 L143.496,60.256 L143.496,60.838 ZM142.740,62.408 L142.507,63.338 L142.158,63.338 L142.333,62.408 L142.740,62.408 ZM141.344,61.826 C141.344,61.672 141.286,61.594 141.170,61.594 C141.363,61.090 141.557,60.838 141.751,60.838 L142.333,60.838 L142.333,61.012 C142.216,61.555 141.887,61.826 141.344,61.826 ZM143.496,51.649 L143.263,51.649 C143.031,51.649 142.914,51.514 142.914,51.242 C142.952,51.010 143.069,50.893 143.263,50.893 L143.496,50.893 C143.728,50.932 143.845,51.049 143.845,51.242 C143.845,51.514 143.728,51.649 143.496,51.649 ZM144.426,48.567 L144.426,48.742 C144.426,49.013 144.310,49.149 144.077,49.149 L143.845,48.742 L144.252,48.567 L144.426,48.567 ZM145.764,43.566 C145.802,43.333 145.938,43.217 146.171,43.217 L146.345,44.147 L145.996,44.322 L145.764,43.973 L145.764,43.566 ZM146.927,47.404 L147.334,47.404 L147.334,47.986 C146.752,48.800 146.229,50.215 145.764,52.231 C145.027,53.394 144.523,54.596 144.252,55.836 L143.496,56.069 L143.496,56.243 C143.883,56.243 144.077,56.380 144.077,56.650 C143.031,58.938 142.449,60.082 142.333,60.082 L141.926,59.500 C142.391,59.500 142.720,58.550 142.914,56.650 C143.224,56.650 143.534,55.371 143.845,52.812 C143.999,52.812 144.387,51.979 145.008,50.312 C145.706,50.312 146.151,49.788 146.345,48.742 C146.732,48.199 146.927,47.753 146.927,47.404 ZM148.497,36.878 L148.497,36.646 L148.671,36.646 C148.904,36.685 149.020,36.820 149.020,37.053 L149.020,37.227 L148.846,37.227 C148.613,37.227 148.497,37.111 148.497,36.878 ZM147.334,47.055 L147.334,45.892 C147.837,45.310 148.090,44.729 148.090,44.147 C147.818,44.147 147.683,44.012 147.683,43.740 L148.846,42.810 L149.020,43.217 C148.671,44.923 148.109,46.203 147.334,47.055 ZM155.010,30.714 L155.010,30.539 C155.010,30.346 155.204,30.152 155.592,29.958 L155.592,30.307 C155.592,30.579 155.455,30.714 155.185,30.714 L155.010,30.714 ZM158.092,23.445 L157.860,24.375 L157.511,24.375 L157.685,23.445 L158.092,23.445 ZM152.859,39.553 L152.859,39.379 C152.936,38.565 153.324,37.790 154.022,37.053 C154.022,37.363 154.215,37.673 154.603,37.983 C154.215,37.983 153.634,38.507 152.859,39.553 ZM154.429,36.471 L154.254,36.064 C154.797,34.901 155.436,33.254 156.173,31.121 C156.793,29.842 157.162,29.202 157.278,29.202 L157.511,29.202 L157.278,29.958 L157.278,30.539 C156.813,30.539 156.250,31.877 155.592,34.552 L155.766,35.541 L154.254,37.053 L154.022,37.053 L154.022,36.878 C154.060,36.607 154.196,36.471 154.429,36.471 ZM150.591,45.136 L152.684,39.728 L152.859,39.728 L153.091,41.472 C152.780,41.705 152.451,41.821 152.103,41.821 C152.103,42.093 152.296,42.228 152.684,42.228 L152.684,42.635 C152.335,43.023 152.024,43.779 151.754,44.903 C151.210,45.175 150.823,45.310 150.591,45.310 L150.591,45.136 ZM192.064,69.909 L192.064,70.200 C192.064,71.209 191.367,72.081 189.971,72.817 L189.738,72.817 L189.738,71.480 C189.738,71.286 190.436,70.763 191.832,69.909 L192.064,69.909 ZM192.588,69.153 L192.879,69.153 L192.879,69.909 L192.064,69.909 L192.064,69.677 C192.142,69.328 192.316,69.153 192.588,69.153 ZM216.247,80.552 L216.480,80.959 C216.480,81.230 216.344,81.366 216.073,81.366 L215.433,81.366 C215.433,81.133 215.704,80.862 216.247,80.552 ZM219.795,76.190 L219.795,76.365 C219.795,76.559 219.523,76.772 218.980,77.004 L218.748,76.597 C219.213,76.326 219.562,76.190 219.795,76.190 ZM221.656,73.050 L221.656,73.689 C221.656,73.884 221.170,74.368 220.202,75.143 L220.027,74.736 L221.481,73.050 L221.656,73.050 ZM222.935,70.317 L223.109,70.317 L223.109,70.549 C223.109,70.744 222.915,70.956 222.528,71.189 L222.528,70.782 C222.566,70.472 222.702,70.317 222.935,70.317 ZM222.528,71.363 C222.528,71.635 222.372,71.770 222.063,71.770 L222.063,71.189 L222.528,71.189 L222.528,71.363 ZM223.749,68.456 C223.477,68.456 223.342,68.320 223.342,68.049 L223.749,67.874 L223.749,68.456 ZM225.028,65.141 L225.028,65.548 C225.028,65.820 224.873,65.955 224.563,65.955 L224.389,65.955 L224.389,65.781 C224.505,65.510 224.563,65.296 224.563,65.141 L225.028,65.141 ZM277.039,75.318 L277.271,75.609 L277.271,75.783 L277.039,75.783 C276.806,75.783 276.690,75.667 276.690,75.434 L277.039,75.318 ZM309.303,78.342 L308.489,78.923 L308.198,78.923 L308.198,78.633 C308.198,78.362 308.469,78.090 309.012,77.818 L309.303,78.342 Z"/>
</svg>